<?xml version="1.0" encoding="utf-8"?>
<!-- Generator: Adobe Illustrator 24.3.0, SVG Export Plug-In . SVG Version: 6.00 Build 0)  -->
<svg version="1.1" xmlns="http://www.w3.org/2000/svg" xmlns:xlink="http://www.w3.org/1999/xlink" x="0px" y="0px"
	 viewBox="0 0 500 500" style="enable-background:new 0 0 500 500;" xml:space="preserve">
<style type="text/css">
	.st0{fill:#EBEBEB;}
	.st1{fill:#F0F0F0;}
	.st2{fill:#FAFAFA;}
	.st3{fill:#E0E0E0;}
	.st4{fill:#E6E6E6;}
	.st5{fill:#FFFFFF;}
	.st6{display:none;}
	.st7{display:inline;}
	.st8{fill:#407BFF;}
	.st9{opacity:0.9;fill:#FFFFFF;}
	.st10{fill:#F5F5F5;}
	.st11{fill:#263238;}
	.st12{opacity:0.4;fill:#263238;}
	.st13{opacity:0.1;fill:#FFFFFF;}
	.st14{opacity:0.3;}
	.st15{opacity:0.8;fill:#263238;}
	.st16{fill:#FFC3BD;}
	.st17{fill:#ED847E;}
	.st18{opacity:0.2;fill:#FAFAFA;}
	.st19{opacity:0.2;}
</style>
<g id="Background_Complete">
	<g>
		<rect y="382.4" class="st0" width="500" height="0.25"/>
		<rect x="52.46" y="391.92" class="st0" width="77.91" height="0.25"/>
		<rect x="412" y="399.53" class="st0" width="37.9" height="0.25"/>
		<rect x="131.37" y="401.21" class="st0" width="19.19" height="0.25"/>
		<rect x="202.17" y="389.21" class="st0" width="43.19" height="0.25"/>
		<rect x="254.26" y="389.21" class="st0" width="6.33" height="0.25"/>
		<rect x="327.67" y="395.31" class="st0" width="43.22" height="0.25"/>
		<path class="st0" d="M237.01,337.8H43.92c-3.15,0-5.71-2.56-5.71-5.71V60.66c0-3.15,2.56-5.71,5.71-5.71h193.1
			c3.15,0,5.71,2.56,5.71,5.71v271.43C242.72,335.24,240.16,337.8,237.01,337.8z M43.92,55.2c-3.01,0-5.46,2.45-5.46,5.46v271.43
			c0,3.01,2.45,5.46,5.46,5.46h193.1c3.01,0,5.46-2.45,5.46-5.46V60.66c0-3.01-2.45-5.46-5.46-5.46H43.92z"/>
		<path class="st0" d="M453.31,337.8h-193.1c-3.15,0-5.71-2.56-5.71-5.71V60.66c0-3.15,2.56-5.71,5.71-5.71h193.1
			c3.15,0,5.71,2.56,5.71,5.71v271.43C459.02,335.24,456.46,337.8,453.31,337.8z M260.21,55.2c-3.01,0-5.46,2.45-5.46,5.46v271.43
			c0,3.01,2.45,5.46,5.46,5.46h193.1c3.01,0,5.46-2.45,5.46-5.46V60.66c0-3.01-2.45-5.46-5.46-5.46H260.21z"/>
	</g>
	<g>
		<g>
			<path class="st1" d="M132.87,359.54H83.73c-2.19,0-4.05-1.61-4.37-3.77l-12.3-84.07c-0.39-2.66,1.67-5.05,4.37-5.05h49.13
				c2.19,0,4.05,1.61,4.37,3.77l12.3,84.07C137.62,357.15,135.56,359.54,132.87,359.54z"/>
			<path class="st2" d="M89.58,359.54H66.41c-2.19,0-4.05-1.61-4.37-3.77l-12.3-84.07c-0.39-2.66,1.67-5.05,4.37-5.05h23.17
				c2.19,0,4.05,1.61,4.37,3.77l12.3,84.07C94.33,357.15,92.27,359.54,89.58,359.54z"/>
			<path class="st3" d="M382.82,245.33h-238.8c-6.06,0-11.4,4.55-11.92,10.16l-6.01,64.91c-0.52,5.61,3.98,10.16,10.04,10.16h238.8
				c6.06,0,11.4-4.55,11.92-10.16l6.01-64.91C393.38,249.88,388.89,245.33,382.82,245.33z"/>
			<path class="st4" d="M366.61,245.33h-238.8c-6.06,0-11.4,4.55-11.92,10.16l-6.01,64.91c-0.52,5.61,3.98,10.16,10.04,10.16h238.8
				c6.06,0,11.4-4.55,11.92-10.16l6.01-64.91C377.17,249.88,372.68,245.33,366.61,245.33z"/>
			<path class="st0" d="M97.66,352.34v-23.11c0-3.97,3.22-7.19,7.19-7.19h89.94c3.97,0,7.19,3.22,7.19,7.19v23.11
				c0,3.97-3.22,7.19-7.19,7.19h-89.94C100.88,359.54,97.66,356.32,97.66,352.34z"/>
			<path class="st3" d="M227.72,352.95v-24.33c0-3.64,2.95-6.58,6.58-6.58h104.97c3.64,0,6.58,2.95,6.58,6.58v24.33
				c0,3.64-2.95,6.58-6.58,6.58H234.3C230.66,359.54,227.72,356.59,227.72,352.95z"/>
			<path class="st0" d="M201.99,352.95v-24.33c0-3.64,2.95-6.58,6.58-6.58h104.97c3.64,0,6.58,2.95,6.58,6.58v24.33
				c0,3.64-2.95,6.58-6.58,6.58H208.58C204.94,359.54,201.99,356.59,201.99,352.95z"/>
			<path class="st1" d="M382.17,359.54h-36.55c-2.69,0-4.45-2.39-3.72-5.05l23.02-84.07c0.59-2.17,2.66-3.77,4.85-3.77h36.55
				c2.69,0,4.45,2.39,3.72,5.05l-23.02,84.07C386.42,357.93,384.36,359.54,382.17,359.54z"/>
			<path class="st2" d="M351.46,359.54h-23.17c-2.69,0-4.45-2.39-3.72-5.05l23.02-84.07c0.59-2.17,2.66-3.77,4.85-3.77h23.17
				c2.69,0,4.45,2.39,3.72,5.05l-23.02,84.07C355.71,357.93,353.65,359.54,351.46,359.54z"/>
			<polygon class="st3" points="332.08,382.4 328.56,382.4 320.14,359.54 328.84,359.54 			"/>
			<polygon class="st3" points="376.7,382.4 373.18,382.4 364.75,359.54 373.46,359.54 			"/>
			<polygon class="st3" points="123.07,382.4 126.59,382.4 135.01,359.54 126.3,359.54 			"/>
			<polygon class="st3" points="78.45,382.4 81.97,382.4 90.39,359.54 81.69,359.54 			"/>
		</g>
		<g>
			<rect x="116.67" y="97.67" class="st3" width="266.66" height="95.11"/>
			<rect x="114.22" y="97.67" class="st1" width="266.66" height="95.11"/>
			
				<rect x="208" y="19.89" transform="matrix(-1.836970e-16 1 -1 -1.836970e-16 392.7776 -102.3332)" class="st2" width="79.11" height="250.66"/>
			<circle class="st1" cx="247.56" cy="145.22" r="23.72"/>
			<polygon class="st5" points="162.92,184.78 179.53,105.67 216.2,105.67 199.58,184.78 			"/>
			<polygon class="st5" points="215.05,184.78 231.67,105.67 250,105.67 233.39,184.78 			"/>
			<polygon class="st5" points="326.99,184.78 343.61,105.67 361.94,105.67 345.33,184.78 			"/>
		</g>
		<g>
			<path class="st1" d="M442.28,251.76c-6.22,26.96,9,54.81,2.78,81.78c-2.05-0.09-4.11-0.17-6.16-0.26
				c-2.05-0.09-4.11-0.17-6.16-0.26C443.06,306.23,431.95,278.55,442.28,251.76z"/>
			<path class="st1" d="M426.33,263.45c5.1,25.78-11.26,51.55-6.17,77.33c2.06,0,4.11,0,6.17,0c2.06,0,4.11,0,6.17,0
				C423.29,315.01,435.54,289.23,426.33,263.45z"/>
			<path class="st4" d="M437.72,242.02c-8.16,27.49,7.01,57.16-1.15,84.65c-2.23-0.21-4.47-0.42-6.7-0.63
				c-2.23-0.21-4.47-0.42-6.7-0.63C435.79,298.34,425.09,269.09,437.72,242.02z"/>
			<path class="st4" d="M449.73,281.61c2.63,14.87-12.04,26.55-9.41,41.42c1.66,0.3,3.31,0.61,4.97,0.91
				c1.66,0.3,3.31,0.61,4.97,0.91C444.32,309.38,455.67,297.08,449.73,281.61z"/>
			<ellipse class="st3" cx="435.02" cy="352.22" rx="33.65" ry="37.68"/>
		</g>
	</g>
</g>
<g id="Background_Simple" class="st6">
	<g class="st7">
		<path class="st8" d="M79.6,156.07c49.01-113.98,324.81-95.52,245.36,52.12c-30.4,56.51-100.61,90.4-164.48,81.52
			C89.33,279.8,48.65,228.06,79.6,156.07z"/>
		<path class="st9" d="M79.6,156.07c49.01-113.98,324.81-95.52,245.36,52.12c-30.4,56.51-100.61,90.4-164.48,81.52
			C89.33,279.8,48.65,228.06,79.6,156.07z"/>
	</g>
</g>
<g id="Shadow_1_">
	<ellipse id="_x3C_Path_x3E__124_" class="st10" cx="250" cy="416.24" rx="193.89" ry="11.32"/>
</g>
<g id="Board">
	<g>
		<g>
			<path class="st11" d="M383.8,274.59H167.7c-2.33,0-4.13-1.91-4-4.24l7.28-132.48c0.13-2.33,2.14-4.24,4.47-4.24h216.1
				c2.33,0,4.13,1.91,4,4.24l-7.28,132.48C388.14,272.69,386.13,274.59,383.8,274.59z"/>
			<path class="st11" d="M292.89,156.17h-20.89c-6.97,0-12.35-5.69-11.97-12.65l0.21-3.86c0.37-6.74,6.19-12.25,12.94-12.25h20.88
				c6.97,0,12.36,5.7,11.98,12.66l-0.21,3.85C305.47,150.65,299.64,156.17,292.89,156.17z"/>
			<polygon class="st11" points="311.91,412.06 305.22,412.06 286.79,130.36 293.48,130.36 			"/>
			<polygon class="st11" points="261.67,412.06 268.37,412.06 286.79,130.36 280.1,130.36 			"/>
			<path class="st8" d="M382.65,274.59h-216.1c-2.33,0-4.13-1.91-4-4.24l7.28-132.48c0.13-2.33,2.14-4.24,4.47-4.24h216.1
				c2.33,0,4.13,1.91,4,4.24l-7.28,132.48C386.99,272.69,384.98,274.59,382.65,274.59z"/>
			<path class="st12" d="M169.98,270.53c-1.87,0-3.3-1.52-3.2-3.38l6.93-126.07c0.1-1.87,1.7-3.38,3.57-3.38h209.68
				c1.87,0,3.3,1.52,3.2,3.38l-6.93,126.07c-0.1,1.87-1.7,3.38-3.57,3.38H169.98z"/>
			<path class="st13" d="M380.96,203.71h-63.12c-1.59,0-2.8-1.29-2.72-2.87l3.15-57.39c0.01-0.22-0.16-0.41-0.38-0.41
				s-0.42,0.18-0.43,0.41l-3.15,57.39c-0.09,1.59-1.44,2.87-3.03,2.87H245.7c-1.59,0-2.8-1.29-2.72-2.87l3.15-57.39
				c0.01-0.22-0.16-0.41-0.38-0.41s-0.42,0.18-0.43,0.41l-3.15,57.39c-0.09,1.59-1.44,2.87-3.03,2.87h-63.12
				c-0.22,0-0.42,0.18-0.43,0.41c-0.01,0.22,0.16,0.41,0.38,0.41h63.12c1.59,0,2.8,1.29,2.72,2.87l-3.15,57.39
				c-0.01,0.22,0.16,0.41,0.38,0.41c0.22,0,0.42-0.18,0.43-0.41l3.15-57.39c0.09-1.59,1.44-2.87,3.03-2.87h65.59
				c1.59,0,2.8,1.29,2.72,2.87l-3.15,57.39c-0.01,0.22,0.16,0.41,0.38,0.41c0.22,0,0.42-0.18,0.43-0.41l3.15-57.39
				c0.09-1.59,1.44-2.87,3.03-2.87h63.12c0.22,0,0.42-0.18,0.43-0.41C381.36,203.89,381.19,203.71,380.96,203.71z"/>
		</g>
		<g>
			<polygon class="st12" points="278.05,153.45 252.7,153.45 251.29,179.23 276.6,179.91 			"/>
			<path class="st5" d="M275.31,178.8c-8.48-0.41-16.96-0.83-25.45-1.24c1.41-8.76,2.29-17.55,2.65-26.31
				c8.53,0.41,17.06,0.83,25.59,1.24C277.7,161.25,276.76,170.04,275.31,178.8z"/>
		</g>
		<g>
			<polygon class="st12" points="308.62,170.67 283.23,172.61 283.79,198.31 309.19,197.05 			"/>
			<path class="st8" d="M307.81,196.05c-8.52,0.24-17.05,0.47-25.57,0.71c0.74-8.81,0.95-17.6,0.64-26.33
				c8.58-0.24,17.15-0.48,25.72-0.72C308.86,178.45,308.59,187.24,307.81,196.05z"/>
		</g>
		<g>
			<polygon class="st12" points="234.48,217.56 187.68,215.78 183.48,257.41 230.17,260.29 			"/>
			<path class="st5" d="M227.84,258.41c-15.63-1.27-31.26-2.53-46.9-3.8c3.14-14.09,5.31-28.24,6.5-42.4
				c15.73,1.27,31.45,2.54,47.17,3.81C233.34,230.17,231.07,244.33,227.84,258.41z"/>
		</g>
		<g class="st14">
			<path class="st11" d="M186.31,159.27L186.31,159.27c-1.45,0-2.57-1.19-2.49-2.64l0,0c0.08-1.45,1.33-2.64,2.78-2.64l0,0
				c1.45,0,2.57,1.19,2.49,2.64l0,0C189.01,158.08,187.76,159.27,186.31,159.27z"/>
			<path class="st15" d="M227.66,159.27h-32.47c-1.45,0-2.57-1.19-2.49-2.64l0,0c0.08-1.45,1.33-2.64,2.78-2.64h32.47
				c1.45,0,2.57,1.19,2.49,2.64l0,0C230.37,158.08,229.11,159.27,227.66,159.27z"/>
			<path class="st11" d="M185.68,170.78L185.68,170.78c-1.45,0-2.57-1.19-2.49-2.64l0,0c0.08-1.45,1.33-2.64,2.78-2.64l0,0
				c1.45,0,2.57,1.19,2.49,2.64l0,0C188.38,169.59,187.13,170.78,185.68,170.78z"/>
			<path class="st15" d="M232.78,170.78h-38.23c-1.45,0-2.57-1.19-2.49-2.64l0,0c0.08-1.45,1.33-2.64,2.78-2.64h38.23
				c1.45,0,2.57,1.19,2.49,2.64l0,0C235.49,169.59,234.23,170.78,232.78,170.78z"/>
			<path class="st11" d="M185.04,182.28L185.04,182.28c-1.45,0-2.57-1.19-2.49-2.64l0,0c0.08-1.45,1.33-2.64,2.78-2.64l0,0
				c1.45,0,2.57,1.19,2.49,2.64l0,0C187.75,181.1,186.49,182.28,185.04,182.28z"/>
			<path class="st15" d="M212.53,182.28h-18.6c-1.45,0-2.57-1.19-2.49-2.64l0,0c0.08-1.45,1.33-2.64,2.78-2.64h18.61
				c1.45,0,2.57,1.19,2.49,2.64l0,0C215.23,181.1,213.98,182.28,212.53,182.28z"/>
			<path class="st15" d="M229.76,193.79h-18.61c-1.45,0-2.57-1.19-2.49-2.64l0,0c0.08-1.45,1.33-2.64,2.78-2.64h18.61
				c1.45,0,2.57,1.19,2.49,2.64l0,0C232.46,192.6,231.21,193.79,229.76,193.79z"/>
			<path class="st11" d="M184.41,193.79L184.41,193.79c-1.45,0-2.57-1.19-2.49-2.64l0,0c0.08-1.45,1.33-2.64,2.78-2.64l0,0
				c1.45,0,2.57,1.19,2.49,2.64l0,0C187.11,192.6,185.86,193.79,184.41,193.79z"/>
			<path class="st15" d="M201.88,193.79h-8.59c-1.45,0-2.57-1.19-2.49-2.64l0,0c0.08-1.45,1.33-2.64,2.78-2.64h8.59
				c1.45,0,2.57,1.19,2.49,2.64l0,0C204.59,192.6,203.34,193.79,201.88,193.79z"/>
		</g>
		<g>
			<polygon class="st8" points="265.14,228.03 252.55,228.03 250.82,259.54 263.41,259.54 			"/>
			<polygon class="st8" points="284.25,234.53 271.65,234.53 270.28,259.54 282.87,259.54 			"/>
			<polygon class="st8" points="304.62,217.75 292.03,217.75 289.74,259.54 302.33,259.54 			"/>
			<g>
				<path class="st5" d="M255.36,245.81c-1.25,0-2.5-0.03-3.78-0.1c-2.2-0.11-5.05-0.39-7.62-1.54c-0.41-0.18-0.59-0.66-0.41-1.07
					c0.18-0.41,0.66-0.59,1.07-0.41c2.32,1.04,4.98,1.3,7.04,1.4c15.11,0.78,28.34-3.16,41.66-12.38c3.17-2.2,7.92-6.27,10.83-10.5
					c0.25-0.37,0.76-0.46,1.13-0.21c0.37,0.25,0.46,0.76,0.21,1.13c-3.03,4.4-7.79,8.52-11.24,10.91
					C281.74,241.71,269.29,245.81,255.36,245.81z"/>
				<path class="st5" d="M307.36,227.43c-0.1,0-0.21-0.02-0.31-0.06c-0.41-0.17-0.61-0.65-0.44-1.06c1.15-2.78,1.39-5.91,0.7-8.75
					c-3.17,2.13-6.54,3.92-10.06,5.34c-0.42,0.17-0.89-0.03-1.06-0.45c-0.17-0.42,0.03-0.89,0.45-1.06
					c3.75-1.51,7.34-3.46,10.67-5.8c0.21-0.15,0.48-0.19,0.72-0.11c0.24,0.08,0.44,0.27,0.52,0.51c1.17,3.46,1.01,7.44-0.43,10.93
					C307.98,227.24,307.68,227.43,307.36,227.43z"/>
			</g>
		</g>
		<g>
			<path class="st8" d="M373.67,196.37h-46.84c-0.79,0-1.53-0.31-2.06-0.87c-0.54-0.57-0.81-1.31-0.76-2.11l2.18-39.6
				c0.09-1.62,1.48-2.94,3.1-2.94h46.84c0.79,0,1.53,0.31,2.06,0.87c0.54,0.57,0.81,1.31,0.76,2.11l-2.18,39.6
				C376.68,195.05,375.29,196.37,373.67,196.37z M329.28,151.65c-1.2,0-2.23,0.98-2.29,2.17l-2.18,39.6
				c-0.03,0.57,0.16,1.11,0.54,1.51c0.38,0.4,0.9,0.62,1.47,0.62h46.84c1.2,0,2.23-0.98,2.29-2.17l2.18-39.6
				c0.03-0.57-0.16-1.11-0.54-1.51c-0.38-0.4-0.9-0.62-1.47-0.62H329.28z"/>
			<path class="st8" d="M378.1,162.2h-51.96c-0.22,0-0.41-0.18-0.41-0.41c0-0.22,0.18-0.41,0.41-0.41h51.96
				c0.22,0,0.41,0.18,0.41,0.41C378.51,162.02,378.33,162.2,378.1,162.2z"/>
			<path class="st8" d="M336.54,196.37c-0.01,0-0.02,0-0.02,0c-0.22-0.01-0.4-0.2-0.38-0.43l1.88-34.17c0.01-0.22,0.2-0.4,0.43-0.38
				c0.22,0.01,0.4,0.2,0.38,0.43l-1.88,34.17C336.93,196.2,336.75,196.37,336.54,196.37z"/>
			<g>
				<path class="st8" d="M372.15,166.26h-28.21c-0.22,0-0.41-0.18-0.41-0.41s0.18-0.41,0.41-0.41h28.21c0.22,0,0.41,0.18,0.41,0.41
					S372.38,166.26,372.15,166.26z"/>
				<path class="st8" d="M367.9,171.24h-24.23c-0.22,0-0.41-0.18-0.41-0.41c0-0.22,0.18-0.41,0.41-0.41h24.23
					c0.22,0,0.41,0.18,0.41,0.41C368.31,171.06,368.13,171.24,367.9,171.24z"/>
				<path class="st8" d="M357.49,176.38h-14.11c-0.22,0-0.41-0.18-0.41-0.41s0.18-0.41,0.41-0.41h14.11c0.22,0,0.41,0.18,0.41,0.41
					S357.72,176.38,357.49,176.38z"/>
				<path class="st8" d="M360.05,186.42h-17.22c-0.22,0-0.41-0.18-0.41-0.41c0-0.22,0.18-0.41,0.41-0.41h17.22
					c0.22,0,0.41,0.18,0.41,0.41C360.46,186.24,360.28,186.42,360.05,186.42z"/>
				<path class="st8" d="M356.66,191.56h-14.11c-0.22,0-0.41-0.18-0.41-0.41c0-0.22,0.18-0.41,0.41-0.41h14.11
					c0.22,0,0.41,0.18,0.41,0.41C357.06,191.38,356.88,191.56,356.66,191.56z"/>
				<path class="st8" d="M364.92,191.56h-4.52c-0.22,0-0.41-0.18-0.41-0.41c0-0.22,0.18-0.41,0.41-0.41h4.52
					c0.22,0,0.41,0.18,0.41,0.41C365.32,191.38,365.14,191.56,364.92,191.56z"/>
				<path class="st8" d="M369.53,181.37h-26.41c-0.22,0-0.41-0.18-0.41-0.41s0.18-0.41,0.41-0.41h26.41c0.22,0,0.41,0.18,0.41,0.41
					S369.75,181.37,369.53,181.37z"/>
			</g>
		</g>
		<path class="st5" d="M344.9,253.98c-6.12,0-11.13-1.81-14.25-5.17c-3.32-3.59-4.7-9.24-3.78-15.5c0.56-3.83,1.82-7.05,3.72-9.56
			c1.91-2.52,4.68-4.59,8.23-6.17c7.82-3.48,16.88-3.36,24.23,0.33c3.29,1.65,5.35,3.74,6.13,6.21c0.13,0.43-0.1,0.88-0.53,1.02
			c-0.43,0.13-0.88-0.1-1.02-0.53c-0.64-2.03-2.43-3.8-5.31-5.24c-6.92-3.47-15.45-3.58-22.84-0.29c-3.29,1.46-5.85,3.37-7.59,5.67
			c-1.74,2.29-2.89,5.25-3.41,8.81c-0.85,5.77,0.38,10.93,3.37,14.16c4.16,4.49,11.03,4.81,14.76,4.6c6.94-0.38,12.9-2.81,16.8-6.82
			c4.56-4.7,5.84-11.72,2.97-16.34c-0.56-0.89-1.75-2.42-3.5-2.6c-0.45-0.04-0.77-0.44-0.73-0.89c0.04-0.45,0.44-0.77,0.89-0.73
			c1.81,0.18,3.49,1.37,4.72,3.36c3.25,5.23,1.88,13.11-3.19,18.33c-4.18,4.31-10.53,6.9-17.88,7.31
			C346.09,253.96,345.49,253.98,344.9,253.98z"/>
	</g>
</g>
<g id="Character_1_">
	<g>
		<path class="st16" d="M137.32,169.34l-2.88,5.03l-2.83,5.13c-1.86,3.43-3.64,6.89-5.26,10.36c-0.81,1.74-1.58,3.48-2.28,5.22
			l-0.13,0.32c-0.01,0.03-0.03,0.05-0.04,0.07c-0.05,0.05-0.06,0.1-0.09,0.14c-0.05,0.09-0.09,0.17-0.14,0.29
			c-0.07,0.23-0.05,0.61,0.12,1.12c0.32,1.04,1.26,2.39,2.41,3.65c1.13,1.27,2.59,2.56,3.9,3.7l-2.34,4.99
			c-1.19-0.34-2.18-0.68-3.23-1.14c-1.04-0.44-2.05-0.97-3.05-1.57c-1.99-1.23-3.98-2.74-5.64-5.23c-0.8-1.24-1.49-2.78-1.76-4.56
			c-0.12-0.89-0.17-1.81-0.05-2.72c0.05-0.45,0.12-0.91,0.23-1.33l0.16-0.65l0.12-0.39c0.64-2.04,1.31-4.07,2.09-6.02
			c1.52-3.93,3.23-7.72,5.1-11.41c0.93-1.85,1.9-3.67,2.92-5.47c1.03-1.81,2.02-3.56,3.2-5.39L137.32,169.34z"/>
		<path class="st16" d="M127.6,203.8l5.25-1.37l0.3,8.48c0,0-4.11,0.61-6.63-1.9L127.6,203.8z"/>
		<polygon class="st16" points="140.3,201 139.11,208.45 133.15,210.91 132.85,202.43 		"/>
		<path class="st11" d="M162.03,129.36c0.12,0.58,0.52,0.99,0.9,0.91c0.38-0.08,0.59-0.61,0.47-1.19c-0.12-0.58-0.52-0.99-0.9-0.91
			C162.13,128.24,161.92,128.78,162.03,129.36z"/>
		<path class="st17" d="M162.5,130.36c0,0,2,3.08,3.78,4.4c-0.83,1.17-2.67,1.08-2.67,1.08L162.5,130.36z"/>
		<path class="st11" d="M159.25,126.57c-0.08,0-0.17-0.03-0.24-0.09c-0.14-0.13-0.15-0.35-0.02-0.49c1.31-1.41,2.89-1.16,2.96-1.15
			c0.19,0.03,0.32,0.21,0.28,0.4c-0.03,0.19-0.21,0.32-0.4,0.28l0,0c-0.05-0.01-1.29-0.19-2.33,0.94
			C159.44,126.53,159.35,126.57,159.25,126.57z"/>
		<path class="st16" d="M145.49,137.52c1.05,5.37,2.11,15.22-1.65,18.81c0,0,1.47,5.45,11.46,5.45c10.98,0,5.25-5.45,5.25-5.45
			c-5.99-1.43-5.84-5.88-4.79-10.05L145.49,137.52z"/>
		<path class="st11" d="M141.67,157.33c-0.8-1.49-1.69-3.2,0.14-3.74c2.01-0.59,14.94-1.68,18.73-0.58
			c-1.17,2.08,0.81,4.63,0.81,4.63L141.67,157.33z"/>
		<path class="st8" d="M109.14,407.88c0.74,0.16,1.47,0.2,1.83-0.1c0.15-0.13,0.3-0.37,0.17-0.81c-0.07-0.23-0.22-0.4-0.45-0.51
			c-0.99-0.47-3.27,0.46-3.37,0.5c-0.06,0.03-0.11,0.09-0.11,0.16c0,0.07,0.04,0.13,0.1,0.16
			C107.66,407.44,108.4,407.72,109.14,407.88z M110.33,406.71c0.07,0.02,0.14,0.04,0.2,0.07c0.14,0.07,0.22,0.16,0.26,0.3
			c0.09,0.31-0.02,0.41-0.06,0.44c-0.39,0.34-1.86,0.03-2.9-0.39C108.55,406.88,109.68,406.57,110.33,406.71z"/>
		<path class="st8" d="M107.35,407.29c0.03,0.01,0.06,0.01,0.09,0c0.83-0.24,2.61-1.5,2.63-2.34c0-0.15-0.05-0.43-0.45-0.56
			c-0.26-0.09-0.52-0.07-0.77,0.06c-0.98,0.5-1.6,2.54-1.63,2.62c-0.02,0.06,0,0.13,0.04,0.17
			C107.29,407.26,107.32,407.28,107.35,407.29z M109.43,404.69c0.03,0.01,0.05,0.01,0.08,0.02c0.22,0.07,0.21,0.18,0.21,0.23
			c-0.01,0.49-1.18,1.48-2.04,1.88c0.22-0.59,0.71-1.75,1.34-2.07C109.15,404.68,109.29,404.66,109.43,404.69z"/>
		<path class="st8" d="M163.38,409.11c0.94,0,1.85-0.13,2.16-0.55c0.11-0.15,0.19-0.4-0.01-0.76c-0.11-0.2-0.3-0.34-0.55-0.41
			c-1.22-0.33-3.79,1.13-3.9,1.19c-0.06,0.04-0.1,0.11-0.09,0.18c0.01,0.07,0.07,0.13,0.14,0.14
			C161.59,409,162.5,409.11,163.38,409.11z M164.54,407.69c0.12,0,0.24,0.01,0.34,0.04c0.16,0.04,0.27,0.12,0.34,0.24
			c0.12,0.22,0.08,0.32,0.03,0.38c-0.34,0.47-2.2,0.49-3.56,0.29C162.37,408.3,163.68,407.69,164.54,407.69z"/>
		<path class="st8" d="M161.16,408.91c0.02,0,0.05-0.01,0.07-0.02c0.89-0.4,2.64-1.99,2.51-2.82c-0.03-0.2-0.17-0.44-0.65-0.49
			c-0.36-0.04-0.68,0.06-0.96,0.3c-0.93,0.77-1.13,2.75-1.14,2.83c-0.01,0.06,0.02,0.12,0.07,0.16
			C161.09,408.9,161.12,408.91,161.16,408.91z M162.95,405.93c0.03,0,0.07,0,0.1,0.01c0.31,0.03,0.33,0.15,0.34,0.2
			c0.08,0.5-1.11,1.75-2.02,2.29c0.09-0.58,0.36-1.76,0.97-2.27C162.53,406.01,162.73,405.93,162.95,405.93z"/>
		<polygon class="st16" points="153.08,408.74 160.43,408.74 161.16,391.72 153.81,391.72 		"/>
		<polygon class="st16" points="99.16,405.34 106.34,406.89 113.55,391.04 106.37,389.49 		"/>
		<path class="st11" d="M107.03,406.17l-8.07-1.75c-0.29-0.06-0.59,0.09-0.72,0.36l-2.8,6.08c-0.29,0.63,0.09,1.37,0.77,1.5
			c2.83,0.56,4.23,0.69,7.78,1.46c2.18,0.47,7.11,1.67,10.12,2.33c2.95,0.64,4.05-2.24,2.88-2.78c-5.27-2.41-7.47-4.53-8.9-6.5
			C107.84,406.51,107.46,406.26,107.03,406.17z"/>
		<path class="st11" d="M160.38,407.89h-8.02c-0.3,0-0.56,0.21-0.63,0.5l-1.45,6.53c-0.15,0.68,0.36,1.32,1.06,1.31
			c2.89-0.05,7.08-0.22,10.71-0.22c4.25,0,7.93,0.23,12.91,0.23c3.02,0,3.85-3.05,2.59-3.33c-5.75-1.26-10.44-1.39-15.41-4.45
			C161.61,408.13,161.01,407.89,160.38,407.89z"/>
		<g>
			<path class="st8" d="M130.68,157.99c-6.89,1.58-12.56,19.16-12.56,19.16l13.83,10.54c0,0,5.07-4.78,7.33-13.58
				C141.65,164.9,137.72,156.38,130.68,157.99z"/>
			<path class="st18" d="M130.68,157.99c-6.89,1.58-12.56,19.16-12.56,19.16l13.83,10.54c0,0,5.07-4.78,7.33-13.58
				C141.65,164.9,137.72,156.38,130.68,157.99z"/>
		</g>
		<path class="st19" d="M136.58,170.92c-3.74,3.7-4.96,10.44-5.25,16.3l0.61,0.47c0,0,5.08-4.79,7.34-13.58
			c0.14-0.55,0.26-1.1,0.36-1.64L136.58,170.92z"/>
		<g>
			<path class="st8" d="M171.84,158.37c0,0,7.82,8.83,0.43,63.5c-11.84,0-33.53,0-39.29,0c-0.27-6.03,3.52-35.46-2.3-63.88
				c0,0,6.74-1.35,13.15-1.66c5.02-0.24,12.29-0.4,16.7,0C166.36,156.86,171.84,158.37,171.84,158.37z"/>
			<path class="st18" d="M171.84,158.37c0,0,7.82,8.83,0.43,63.5c-11.84,0-33.53,0-39.29,0c-0.27-6.03,3.52-35.46-2.3-63.88
				c0,0,6.74-1.35,13.15-1.66c5.02-0.24,12.29-0.4,16.7,0C166.36,156.86,171.84,158.37,171.84,158.37z"/>
		</g>
		<path class="st19" d="M175.27,175.08l-0.15-0.13l-8.93,2.14c-0.51,6.04,5.7,13.26,8.9,16.56
			C175.53,185.94,175.52,179.86,175.27,175.08z"/>
		<g>
			<polygon class="st19" points="161.16,391.73 160.78,400.5 153.43,400.5 153.81,391.73 			"/>
			<polygon class="st19" points="106.36,389.49 113.55,391.05 109.83,399.22 102.65,397.66 			"/>
		</g>
		<path class="st16" d="M142.42,132.06c1.89,7.04,2.63,11.26,6.98,14.19c6.54,4.4,14.68-0.65,14.93-8.11
			c0.23-6.72-2.9-17.11-10.45-18.53C146.43,118.21,140.53,125.02,142.42,132.06z"/>
		<path class="st11" d="M145.65,143.55c2.99,1.71,13.91-4.01,11.67-12.69c0,0,4.16-5,3.69-10.52c-0.47-5.52-4.26-7.62-8.29-6.44
			c-3.55,1.04-3.45,2.99-3.45,2.99s-16.79,1.98-13.2,8.8C129.23,133.14,141.91,141.41,145.65,143.55z"/>
		<path class="st11" d="M136.54,126.25c0,0-2-3.46-4.92-1.52C132.99,124.75,135.24,124.98,136.54,126.25z"/>
		<path class="st11" d="M160.47,123.97c0,0,3.66-8.26-2.05-10.92C160.35,115.73,161.4,120.05,160.47,123.97z"/>
		<path class="st16" d="M154.4,132.36c0.48,1.85,1.69,3.44,2.96,4.38c1.91,1.42,3.34,0.02,3.2-2.14c-0.12-1.95-1.26-5.03-3.37-5.61
			C155.12,128.42,153.85,130.24,154.4,132.36z"/>
		<path class="st11" d="M158.34,221.87c0,0-8.34,56.14-12.91,77.18c-5.01,23.03-31.89,99.24-31.89,99.24l-13.15-2.85
			c0,0,18.79-62.1,23-94.3c3.23-24.73,9.6-79.26,9.6-79.26H158.34z"/>
		<path class="st8" d="M116.68,393.89c0.06,0.01-2.45,4.76-2.45,4.76l-14.8-3.2l1.25-4.45L116.68,393.89z"/>
		<path class="st14" d="M153.07,241.87c-9.64,1.89-8.62,37.84-7.46,56.33c2.78-13.07,6.85-38.22,9.63-56.07
			C154.6,241.81,153.88,241.71,153.07,241.87z"/>
		<path class="st11" d="M172.27,221.87c0,0,1.01,54.93,0.21,77.33c-0.83,23.3-8.97,99.6-8.97,99.6h-12.45c0,0-0.46-74.94-1.01-97.82
			c-0.6-24.95-3.62-79.11-3.62-79.11H172.27z"/>
		<polygon class="st12" points="241.36,183.15 216.01,183.15 214.59,208.93 239.91,209.61 		"/>
		<path class="st8" d="M228.04,199.74c-8.46-1.04-16.93-2.09-25.39-3.13c2.05-8.6,3.58-17.26,4.58-25.93
			c8.51,1.05,17.03,2.1,25.54,3.14C231.72,182.49,230.14,191.14,228.04,199.74z"/>
		<path class="st8" d="M165.91,393.84c0.06,0-0.7,5.17-0.7,5.17h-15.14l-0.41-4.61L165.91,393.84z"/>
		<path class="st16" d="M175.46,165.07c1.13,1.76,2.42,3.73,3.7,5.56c1.31,1.84,2.62,3.68,4,5.45c2.73,3.54,5.63,6.95,8.75,9.77
			c0.77,0.71,1.56,1.38,2.36,1.99l0.6,0.45c-0.05-0.03-0.24-0.1-0.35-0.12c-0.26-0.05-0.39-0.01-0.32,0.03
			c0.15,0.08,0.88-0.05,1.65-0.38c0.78-0.33,1.66-0.78,2.53-1.31c3.52-2.18,7.15-5.23,10.56-8.19l4.29,3.47
			c-2.66,4.29-5.59,8.17-9.62,11.73c-1.02,0.88-2.12,1.75-3.44,2.53c-1.33,0.76-2.83,1.55-5.05,1.87c-1.1,0.14-2.44,0.12-3.82-0.32
			c-0.67-0.2-1.39-0.56-1.94-0.9l-0.87-0.55c-1.14-0.74-2.23-1.52-3.27-2.34c-4.14-3.28-7.59-6.97-10.77-10.81
			c-1.57-1.94-3.09-3.9-4.49-5.94c-1.43-2.06-2.76-4.03-4.09-6.32L175.46,165.07z"/>
		<g>
			<path class="st8" d="M161.03,169.48c-2.35,9.85,15.47,19.49,15.47,19.49l11.58-13.56c0,0-5.27-7.99-11.83-14.28
				C168.16,153.37,162.82,161.99,161.03,169.48z"/>
			<path class="st18" d="M161.03,169.48c-2.35,9.85,15.47,19.49,15.47,19.49l11.58-13.56c0,0-5.27-7.99-11.83-14.28
				C168.16,153.37,162.82,161.99,161.03,169.48z"/>
		</g>
		<path class="st16" d="M207.78,180.38l2.73-8.77l7.19,3.58c0,0-1.05,6.4-6.28,7.51L207.78,180.38z"/>
		<polygon class="st16" points="213.4,169.17 219.88,170.96 217.71,175.19 210.52,171.6 		"/>
	</g>
</g>
</svg>
