<?xml version="1.0" encoding="utf-8"?>
<!-- Generator: Adobe Illustrator 24.3.0, SVG Export Plug-In . SVG Version: 6.00 Build 0)  -->
<svg version="1.1" id="Layer_1" xmlns="http://www.w3.org/2000/svg" xmlns:xlink="http://www.w3.org/1999/xlink" x="0px" y="0px"
	 viewBox="0 0 3710 3710" style="enable-background:new 0 0 3710 3710;" xml:space="preserve">
<style type="text/css">
	.st0{fill:#F4F7FA;}
	.st1{fill:url(#SVGID_1_);}
	.st2{fill:url(#SVGID_2_);}
	.st3{fill:url(#SVGID_3_);}
	.st4{opacity:0.3;fill:url(#SVGID_4_);enable-background:new    ;}
	.st5{fill:url(#SVGID_5_);}
	.st6{fill:url(#SVGID_6_);}
	.st7{fill:url(#SVGID_7_);}
	.st8{fill:url(#SVGID_8_);}
	.st9{opacity:0.3;}
	.st10{fill:url(#SVGID_9_);}
	.st11{fill:url(#SVGID_10_);}
	.st12{fill:url(#SVGID_11_);}
	.st13{fill:url(#SVGID_12_);}
	.st14{fill:url(#SVGID_13_);}
	.st15{fill:#D8DEE8;}
	.st16{opacity:0.3;fill:url(#SVGID_14_);enable-background:new    ;}
	.st17{opacity:0.3;fill:#D8DEE8;enable-background:new    ;}
	.st18{fill:url(#SVGID_15_);}
	.st19{fill:url(#SVGID_16_);}
	.st20{fill:url(#SVGID_17_);}
	.st21{fill:url(#SVGID_18_);}
	.st22{opacity:0.3;fill:url(#SVGID_19_);enable-background:new    ;}
	.st23{opacity:0.3;fill:url(#SVGID_20_);enable-background:new    ;}
	.st24{fill:url(#SVGID_21_);}
	.st25{fill:url(#SVGID_22_);}
	.st26{fill:#FFFFFF;}
	.st27{fill:url(#SVGID_23_);}
	.st28{fill:url(#SVGID_24_);}
	.st29{fill:url(#SVGID_25_);}
	.st30{fill:url(#SVGID_26_);}
	.st31{fill:url(#SVGID_27_);}
	.st32{fill:url(#SVGID_28_);}
	.st33{fill:url(#SVGID_29_);}
	.st34{fill:url(#SVGID_30_);}
	.st35{opacity:0.15;fill:url(#SVGID_31_);enable-background:new    ;}
	.st36{fill:url(#SVGID_32_);}
	.st37{fill:url(#SVGID_33_);}
	.st38{fill:url(#SVGID_34_);}
	.st39{fill:url(#SVGID_35_);}
	.st40{fill:url(#SVGID_36_);}
	.st41{fill:url(#SVGID_37_);}
	.st42{fill:url(#SVGID_38_);}
	.st43{opacity:0.3;fill:url(#SVGID_39_);enable-background:new    ;}
	.st44{fill:url(#SVGID_40_);}
	.st45{fill:url(#SVGID_41_);}
	.st46{fill:url(#SVGID_42_);}
	.st47{fill:url(#SVGID_43_);}
	.st48{fill:url(#SVGID_44_);}
	.st49{fill:url(#SVGID_45_);}
	.st50{fill:url(#SVGID_46_);}
	.st51{fill:url(#SVGID_47_);}
	.st52{fill:url(#SVGID_48_);}
	.st53{fill:#26264F;}
	.st54{fill:url(#SVGID_49_);}
</style>
<g id="Illustration">
	<g>
		<path class="st0" d="M2516.3,623.3c94.4,135.2-16.3,354.4,123.8,456c136.4,99,304-63.3,432.5,21.9
			c190.7,126.4,155.9,704.6-122.9,1063.9c-83.8,108.1-153.9,150.1-184.9,272.3c-66.6,262.4,167.5,418.5,123,548.3
			C2787.4,3278,1244.3,3523.2,625.2,2645C336,2234.8,292.8,1642.6,551.1,1192.7C1018,379.9,2304.4,320,2516.3,623.3z"/>
		<g>
			
				<linearGradient id="SVGID_1_" gradientUnits="userSpaceOnUse" x1="-80.4506" y1="1799.8542" x2="909.9766" y2="1671.6813" gradientTransform="matrix(1 0 0 -1 520.7473 3710)">
				<stop  offset="0" style="stop-color:#AA80F9"/>
				<stop  offset="0.9964" style="stop-color:#6165D7"/>
			</linearGradient>
			<path class="st1" d="M841.2,2668.9l816.7,133.1c17.1,2.8,34.4,3.5,51.7,2.1l66.7-5.3l-11.1-1451.6L994,1319.8
				c-83.5-3-152.8,63.9-152.8,147.5L841.2,2668.9L841.2,2668.9z"/>
			
				<linearGradient id="SVGID_2_" gradientUnits="userSpaceOnUse" x1="1241.4175" y1="2033.3636" x2="2230.6404" y2="1144.84" gradientTransform="matrix(1 0 0 -1 520.7473 3710)">
				<stop  offset="3.597120e-03" style="stop-color:#E38DDD"/>
				<stop  offset="1" style="stop-color:#9571F6"/>
			</linearGradient>
			<path class="st2" d="M2711.1,1400.7V2665c0,45.2-34.7,82.2-79.7,84.9l-881.7,52.4c-35.7,2.1-66.1-27.5-66.1-64.3V1420.8
				c0-36.8,28.8-67.3,64.7-68.3l888.1-24.7C2677.5,1326.6,2711.1,1359.3,2711.1,1400.7z"/>
			
				<linearGradient id="SVGID_3_" gradientUnits="userSpaceOnUse" x1="1406.7311" y1="2813.0613" x2="1260.7533" y2="2298.6641" gradientTransform="matrix(1 0 0 -1 520.7473 3710)">
				<stop  offset="3.597120e-03" style="stop-color:#E38DDD"/>
				<stop  offset="1" style="stop-color:#9571F6"/>
			</linearGradient>
			<polygon class="st3" points="976.1,1320.8 1683.6,1354.3 2636.3,1327.8 1659.6,1296 			"/>
			
				<linearGradient id="SVGID_4_" gradientUnits="userSpaceOnUse" x1="2134.5991" y1="2279.3401" x2="1141.0319" y2="601.3159" gradientTransform="matrix(1 0 0 -1 520.7473 3710)">
				<stop  offset="3.597120e-03" style="stop-color:#E38DDD"/>
				<stop  offset="1" style="stop-color:#9571F6"/>
			</linearGradient>
			<path class="st4" d="M2635.1,1327.8l-695.5,19.4c-39.6,1.1-71.9,34.5-71.8,74.9c0.1,67.5,11.3,137.2,41,204.5
				c99,224.3,320.3,232.5,366.4,438.4c38.4,171.5-97.5,245.3-111.9,464.5c-3.8,57.6,1.2,119.5,18.4,185.9c9,35,41.5,58.8,76.9,56.7
				l382.9-22.8c39.3-2.3,69.6-34.6,69.6-74.1V1401.9C2711.1,1359.9,2676.9,1326.7,2635.1,1327.8z"/>
			
				<linearGradient id="SVGID_5_" gradientUnits="userSpaceOnUse" x1="1511.9858" y1="2269.5398" x2="1911.8304" y2="255.2334" gradientTransform="matrix(1 0 0 -1 520.7473 3710)">
				<stop  offset="0" style="stop-color:#FFC444"/>
				<stop  offset="0.3138" style="stop-color:#FBA94A"/>
				<stop  offset="0.9964" style="stop-color:#F36F56"/>
			</linearGradient>
			<polygon class="st5" points="1992.7,2787.8 2319.6,2768.3 2319.6,1336.6 1992.7,1345.7 			"/>
			
				<linearGradient id="SVGID_6_" gradientUnits="userSpaceOnUse" x1="1572.5603" y1="1642.8193" x2="2280.7925" y2="1747.5579" gradientTransform="matrix(1 0 0 -1 520.7473 3710)">
				<stop  offset="0" style="stop-color:#FF9085"/>
				<stop  offset="1" style="stop-color:#FB6FBB"/>
			</linearGradient>
			<polygon class="st6" points="2007.4,2786.9 2319.6,2768.3 2319.6,1336.6 2007.4,1345.3 			"/>
			
				<linearGradient id="SVGID_7_" gradientUnits="userSpaceOnUse" x1="1099.4946" y1="2355.439" x2="2596.812" y2="2576.8733" gradientTransform="matrix(1 0 0 -1 520.7473 3710)">
				<stop  offset="0" style="stop-color:#FF9085"/>
				<stop  offset="1" style="stop-color:#FB6FBB"/>
			</linearGradient>
			<polygon class="st7" points="1415.5,1301.5 2326.8,1353.3 1999.2,1353.3 1207.3,1312.4 			"/>
			<g>
				
					<linearGradient id="SVGID_8_" gradientUnits="userSpaceOnUse" x1="1858.1506" y1="2799.5093" x2="1485.8384" y2="2412.3047" gradientTransform="matrix(1 0 0 -1 520.7473 3710)">
					<stop  offset="0" style="stop-color:#FFC444"/>
					<stop  offset="0.3138" style="stop-color:#FBA94A"/>
					<stop  offset="0.9964" style="stop-color:#F36F56"/>
				</linearGradient>
				<path class="st8" d="M1858.9,1257.7c21.2-130,36.7-225,121.6-312.7c35.8-37,74.9-77.4,139-88.1c73.7-12.3,167.8,16.7,193.6,76.9
					c24.5,57.2-33.2,94.4-8.7,160.1c24.6,66,96.4,64.6,104.2,117.9c6.7,45.1-37.4,96.4-81.9,120.4c-76.8,41.5-120.5-16.9-270.5-7.4
					c-103.4,6.5-163.1,39.2-191.1,6.2C1851.8,1315.2,1853.1,1293.4,1858.9,1257.7z"/>
				<g class="st9">
					
						<linearGradient id="SVGID_9_" gradientUnits="userSpaceOnUse" x1="1918.0823" y1="2741.8828" x2="1545.7686" y2="2354.6765" gradientTransform="matrix(1 0 0 -1 520.7473 3710)">
						<stop  offset="0" style="stop-color:#FFC444"/>
						<stop  offset="0.3138" style="stop-color:#FBA94A"/>
						<stop  offset="0.9964" style="stop-color:#F36F56"/>
					</linearGradient>
					<path class="st10" d="M2269.7,1206.8c-92.7-35.4-140.1-112.6-181.2-94.3c-36.5,16.2-14.2,83.9-57.1,139
						c-39.1,50.3-110.9,62.3-174.7,62.3c1.6,6.4,4.2,12.1,8.4,17.1c28,33,87.7,0.3,191.1-6.2c150.1-9.4,193.7,48.9,270.5,7.4
						c40.8-22,81.2-67,82.4-109.1C2365.9,1227.8,2317.8,1225.2,2269.7,1206.8z"/>
				</g>
			</g>
			<g>
				
					<linearGradient id="SVGID_10_" gradientUnits="userSpaceOnUse" x1="978.4797" y1="2645.0815" x2="1967.2711" y2="2791.3113" gradientTransform="matrix(1 0 0 -1 520.7473 3710)">
					<stop  offset="0" style="stop-color:#FFC444"/>
					<stop  offset="0.3138" style="stop-color:#FBA94A"/>
					<stop  offset="0.9964" style="stop-color:#F36F56"/>
				</linearGradient>
				<path class="st11" d="M1299.2,936.3c62.3-49.2,128,5.7,204.8-48.4c77.7-54.8,55.1-142.6,115.4-167.5
					c70-28.9,173.8,59.4,223.4,115.4c126.1,142.4,185.3,395.1,85.6,484c-37.4,33.4-143.3,19.6-353.6-9.2
					c-240.4-33-274.9-56.6-298-87.6C1214.9,1139.6,1228.7,992,1299.2,936.3z"/>
				<g class="st9">
					
						<linearGradient id="SVGID_11_" gradientUnits="userSpaceOnUse" x1="989.9861" y1="2567.2769" x2="1978.7761" y2="2713.5066" gradientTransform="matrix(1 0 0 -1 520.7473 3710)">
						<stop  offset="0" style="stop-color:#FFC444"/>
						<stop  offset="0.3138" style="stop-color:#FBA94A"/>
						<stop  offset="0.9964" style="stop-color:#F36F56"/>
					</linearGradient>
					<path class="st12" d="M1693.9,1043c-34.6-10.9-50.4,28.7-121.6,44.7c-13.1,2.9-138.6,29.2-206-49.6
						c-26.7-31.3-39.3-73.3-37.8-117.9c-9.8,3.4-19.6,8.5-29.2,16.1c-70.6,55.7-84.3,203.3-22.3,286.7c23,30.9,57.6,54.6,298,87.6
						c210.3,28.9,316.2,42.6,353.6,9.2c5-4.5,9.5-9.5,13.8-14.8c-50.5-1.7-103.4-13.9-141.6-51
						C1726.9,1182.4,1752.8,1061.6,1693.9,1043z"/>
				</g>
			</g>
		</g>
		<g>
			
				<linearGradient id="SVGID_12_" gradientUnits="userSpaceOnUse" x1="341.1095" y1="1475.72" x2="935.7689" y2="1023.2617" gradientTransform="matrix(1 0 0 -1 0 3710)">
				<stop  offset="3.597120e-03" style="stop-color:#E38DDD"/>
				<stop  offset="1" style="stop-color:#9571F6"/>
			</linearGradient>
			<path class="st13" d="M559.9,2928.2l383.1,62.4c9.3,1.5,18.8,1.9,28.2,1.2l36.3-2.9l-6-790.4L562.2,2183
				c-34.9-1.2-63.8,26.7-63.8,61.6v611.3C498.4,2891.8,524.4,2922.4,559.9,2928.2z"/>
			
				<linearGradient id="SVGID_13_" gradientUnits="userSpaceOnUse" x1="1455.6232" y1="1517.4221" x2="903.0995" y2="584.2712" gradientTransform="matrix(1 0 0 -1 0 3710)">
				<stop  offset="3.597120e-03" style="stop-color:#E38DDD"/>
				<stop  offset="1" style="stop-color:#9571F6"/>
			</linearGradient>
			<path class="st14" d="M1516.5,2170.7v713.1c0,21.9-16.3,40.4-38,43.3L994,2990c-20,1.6-37-14.2-37-34.2v-717.1
				c0-20,16.2-36.3,36.2-36.4L1516.5,2170.7z"/>
			<polygon class="st15" points="481.6,2249.3 975,2281.6 975,2199.7 481.6,2170.7 			"/>
			
				<linearGradient id="SVGID_14_" gradientUnits="userSpaceOnUse" x1="1486.7495" y1="1498.9924" x2="934.2265" y2="565.8427" gradientTransform="matrix(1 0 0 -1 0 3710)">
				<stop  offset="3.597120e-03" style="stop-color:#E38DDD"/>
				<stop  offset="1" style="stop-color:#9571F6"/>
			</linearGradient>
			<path class="st16" d="M1059,2198.3c24.8,9.6,53,25.5,77.1,52.2c63.4,70.1,52.6,162.9,50.1,184.2c-13.5,115.8-93.8,129-88.9,208.5
				c5.6,90,110.7,107,147,213.3c11.4,33.4,13.2,67.3,9.2,99.9l225-29.2c21.7-2.8,38-21.3,38-43.3v-713.1L1059,2198.3z"/>
			<polygon class="st0" points="975,2199.7 975,2281.6 1530.9,2240.7 1530.9,2170.7 			"/>
			<polygon class="st15" points="481.6,2170.7 975,2146.5 1530.9,2170.7 975,2199.7 			"/>
			<polygon class="st17" points="481.6,2170.7 975,2146.5 1530.9,2170.7 975,2199.7 			"/>
			
				<linearGradient id="SVGID_15_" gradientUnits="userSpaceOnUse" x1="627.5672" y1="1686.8899" x2="793.1582" y2="1436.6218" gradientTransform="matrix(1 0 0 -1 0 3710)">
				<stop  offset="0" style="stop-color:#FF9085"/>
				<stop  offset="1" style="stop-color:#FB6FBB"/>
			</linearGradient>
			<path class="st18" d="M418,2019.9c12.7-19.3,56-80.3,114.2-79.7c35.2,0.4,65.6,26.8,125,79.7c50.4,44.9,59.2,61.5,80.8,79.7
				c39,32.8,109.7,62.4,248.9,38.8c-27.2,8.9-67.1,19.7-116.3,24.8c-62.7,6.4-155.9,16-243.5-29.3c-64.1-33.1-93.2-79-133.6-67.6
				c-9.4,2.7-37.7,13.6-68.1,31.2c-9.5,5.5-17.2,10.5-22.4,14c1-2.8,2.8-7.4,5.4-12.9c20.6-43.4,54.2-57.3,50.6-68.9
				C457.6,2025,449.9,2019.7,418,2019.9z"/>
			
				<linearGradient id="SVGID_16_" gradientUnits="userSpaceOnUse" x1="840.3878" y1="1855.6855" x2="1025.2659" y2="1576.2677" gradientTransform="matrix(1 0 0 -1 0 3710)">
				<stop  offset="0" style="stop-color:#FF9085"/>
				<stop  offset="1" style="stop-color:#FB6FBB"/>
			</linearGradient>
			<path class="st19" d="M968.5,2163.7c-33.8,3.3-123.5,7.3-202.5-49.6c-106.5-76.6-143.6-227.4-109.9-254.2
				c28.5-22.7,102.7,47,131.4,21.5c27.8-24.6-33.4-96.9-4.3-157.3c28.3-58.6,134.5-90.4,193.9-53.9c58.6,36.1,54.4,128,49.6,232.7
				C1021.5,2015.3,992.5,2105.2,968.5,2163.7z"/>
			
				<linearGradient id="SVGID_17_" gradientUnits="userSpaceOnUse" x1="1091.5083" y1="1752.0814" x2="1249.1779" y2="1513.7855" gradientTransform="matrix(1 0 0 -1 0 3710)">
				<stop  offset="0" style="stop-color:#FF9085"/>
				<stop  offset="1" style="stop-color:#FB6FBB"/>
			</linearGradient>
			<path class="st20" d="M968.5,2163.7c-39.2-63.2-38.7-104.6-29.6-131.4c25.7-75.7,134.3-78.1,161.1-168.1
				c11.8-39.8-2.7-62.2,17.2-79.7c31.3-27.5,113.4-12.7,140,32.3c40.2,67.8-55.6,186.3-25.9,209c14.3,10.9,38-15.4,68.9-4.3
				c34.1,12.3,57.4,63.1,49.6,90.5C1338.7,2150.9,1253.7,2181,968.5,2163.7z"/>
			<g class="st9">
				<path class="st15" d="M1530.9,2170.7l-478.7,25c26.4,9.3,57.5,25.6,83.9,54.7c5.4,5.9,10.2,12.1,14.5,18.3l380.3-28
					L1530.9,2170.7L1530.9,2170.7z"/>
			</g>
			
				<linearGradient id="SVGID_18_" gradientUnits="userSpaceOnUse" x1="1141.9214" y1="1466.6481" x2="1358.4563" y2="1139.3854" gradientTransform="matrix(1 0 0 -1 0 3710)">
				<stop  offset="0" style="stop-color:#FF9085"/>
				<stop  offset="1" style="stop-color:#FB6FBB"/>
			</linearGradient>
			<path class="st21" d="M1192.6,2605.4c-24.8-12.3,97.9-185.9,35.7-305.4c-46.2-88.6-179.8-120-195.1-123.4
				c-53.2-11.9-98.3-7.5-98.4-11.3c-0.1-4.9,75.8-13.5,158.7-10.2c93.6,3.7,148.8,6.6,198.2,45.2c39.3,30.8,55.8,69.2,66.8,94.8
				c55.6,129.7,7.9,272-8.6,271.5c-13.6-0.4-14-97.5-36.6-99.1c-15.9-1.1-22.8,46.4-73.3,101.3
				C1223.2,2587,1202,2610.1,1192.6,2605.4z"/>
			
				<linearGradient id="SVGID_19_" gradientUnits="userSpaceOnUse" x1="1096.8745" y1="1755.6324" x2="1254.5442" y2="1517.3364" gradientTransform="matrix(1 0 0 -1 0 3710)">
				<stop  offset="0" style="stop-color:#FF9085"/>
				<stop  offset="1" style="stop-color:#FB6FBB"/>
			</linearGradient>
			<path class="st22" d="M1300.3,2021.5c-30.9-11.1-54.6,15.2-68.9,4.3c-29.8-22.7,66-141.2,25.9-209
				c-10.8-18.2-30.6-31.3-52.4-38.8c19,38.6,18.3,65.4,11.5,84.1c-16.7,46.2-70.7,46.9-88.3,101.3c-16.8,51.9,21.4,84.6,2.2,118.5
				c-21.9,38.6-98.3-1-131.4,34.5c-11.1,11.9-15,29-14.4,48.3c272.5,15.3,354.7-14.4,365.6-52.6
				C1357.8,2084.6,1334.5,2033.8,1300.3,2021.5z"/>
			
				<linearGradient id="SVGID_20_" gradientUnits="userSpaceOnUse" x1="785.8842" y1="1819.6237" x2="970.7622" y2="1540.2059" gradientTransform="matrix(1 0 0 -1 0 3710)">
				<stop  offset="0" style="stop-color:#FF9085"/>
				<stop  offset="1" style="stop-color:#FB6FBB"/>
			</linearGradient>
			<path class="st23" d="M809.1,2030.1c10.7-54.2,98.4-69,99.1-127.1c0.6-51.9-68.9-67.8-86.2-133.6c-8.5-32.2-1.3-64.8,11.6-93.8
				c-22.5,12.1-40.9,28.8-50.4,48.5c-29.1,60.4,32.1,132.7,4.3,157.3c-28.8,25.4-102.9-44.2-131.4-21.5
				c-33.8,26.8,3.4,177.7,109.9,254.2c45.6,32.8,94.7,45.3,134.6,49.4C819.1,2101.1,803.4,2059,809.1,2030.1z"/>
		</g>
		<g>
			<g>
				<path class="st15" d="M3066,2996.2c-1.7,0-3.4-0.3-5.1-0.8l-422.2-132.7c-8.9-2.8-13.9-12.3-11.1-21.2l206.6-660.6
					c2.2-7.2,8.9-12,16.5-11.9c7.5,0.1,14,5.2,16,12.5l215.6,793.4c1.6,6-0.1,12.3-4.6,16.6
					C3074.5,2994.5,3070.3,2996.2,3066,2996.2z M2665,2835.5l376.6,118.4l-192.3-707.6L2665,2835.5z"/>
				<g>
					<ellipse class="st15" cx="2849.3" cy="2188.6" rx="76.3" ry="110"/>
					
						<linearGradient id="SVGID_21_" gradientUnits="userSpaceOnUse" x1="2696.2705" y1="1591.761" x2="2941.5867" y2="1456.4141" gradientTransform="matrix(1 0 0 -1 0 3710)">
						<stop  offset="0" style="stop-color:#D8DEE8"/>
						<stop  offset="0.9964" style="stop-color:#FFFFFF"/>
					</linearGradient>
					<ellipse class="st24" cx="2823.8" cy="2188.6" rx="76.3" ry="110"/>
				</g>
			</g>
			<g>
				<path class="st15" d="M2779.4,1724.5c46.8,12.7,140.7,45.1,221.2,130.2c115.9,122.4,124.9,270.1,128.8,333.1
					c3.1,51.2,19.9,315.3-169.1,454c-73.7,54.1-151.1,70-196.5,75.5c36.8,2.8,73.6,5.6,110.4,8.4c43.5-6.5,106-22.2,166.8-64.3
					c209.2-144.9,182.5-452.7,178.2-494.4c-6.4-63.4-23.5-230.9-161.3-348.7c-67.6-57.7-139.2-82.1-183.7-93.2
					C2842.6,1724.9,2811,1724.7,2779.4,1724.5z"/>
				<path class="st15" d="M2874.2,1725.1c-192.1-1.2-344,216.4-344,486.1s152,499.9,344,514.4c197.3,15,361.3-202.2,361.3-485.4
					S3071.5,1726.4,2874.2,1725.1z M2893.4,2700.4L2893.4,2700.4c-5.7,0-11.5-0.2-17.2-0.7c-84.5-6.4-164.2-59.7-224.3-150
					c-61.7-92.6-95.6-212.8-95.6-338.5c0-125.1,33.6-241.9,94.7-329c59.3-84.6,138.1-131.1,221.6-131.1h1.4
					c43.5,0.3,86,12.9,126.3,37.4c39.9,24.3,76,59.1,107.2,103.4c31.8,45.1,56.8,97.6,74.3,156c18.3,61,27.6,125.7,27.6,192.3
					c0,126.5-33.9,244-95.5,330.8C3054.8,2654.4,2976.5,2700.4,2893.4,2700.4z"/>
				<g>
					<path class="st15" d="M2530.2,2211.3c0-250.7,131.4-456.5,304.2-483.2c-12.1-1.9-24.4-2.9-36.9-2.9
						c-192.1-1.2-344,216.4-344,486.1s152,499.9,344,514.4c19.5,1.5,38.7,0.7,57.4-2.2C2672.1,2695.5,2530.2,2471.8,2530.2,2211.3z"
						/>
				</g>
				
					<linearGradient id="SVGID_22_" gradientUnits="userSpaceOnUse" x1="3206.4617" y1="1853.2684" x2="2409.8616" y2="1145.7972" gradientTransform="matrix(1 0 0 -1 0 3710)">
					<stop  offset="0" style="stop-color:#D8DEE8"/>
					<stop  offset="0.9964" style="stop-color:#FFFFFF"/>
				</linearGradient>
				<path class="st25" d="M2785.5,1724.2c-190.1-1.2-340.6,215.6-340.6,484.3s150.5,497.9,340.6,512.3
					c195.3,14.8,357.6-201.5,357.6-483.6S2980.8,1725.4,2785.5,1724.2z M2804.5,2695.4C2804.4,2695.4,2804.4,2695.4,2804.5,2695.4
					c-5.7,0-11.4-0.2-17-0.6c-83.5-6.3-162.3-59.4-221.9-149.2c-61-92.2-94.7-211.9-94.7-337.1c0-124.6,33.3-241,93.8-327.7
					c58.7-84.2,136.5-130.5,219.2-130.5h1.4c43,0.3,85,12.8,124.9,37.2c39.5,24.1,75.1,58.8,106,102.9
					c31.4,44.9,56.2,97.2,73.5,155.4c18.1,60.8,27.3,125.2,27.3,191.5c0,126-33.6,243.1-94.5,329.5
					C2964,2649.7,2886.5,2695.4,2804.5,2695.4z"/>
			</g>
			<ellipse class="st26" cx="2813.1" cy="2222.6" rx="291.8" ry="443.2"/>
			<g>
				
					<linearGradient id="SVGID_23_" gradientUnits="userSpaceOnUse" x1="1860.3195" y1="1367.683" x2="2421.8892" y2="1367.683" gradientTransform="matrix(1 0 0 -1 0 3710)">
					<stop  offset="0" style="stop-color:#D8DEE8"/>
					<stop  offset="1" style="stop-color:#FFFFFF"/>
				</linearGradient>
				<path class="st27" d="M2403.8,2291.4l-386.9-121.1c-9.9-3.1-20.7,0-27.4,7.9l-123,144.7c-11.5,13.5-6.3,34.2,10.2,40.7
					l380.5,150.1c10.8,4.3,23.2,0.8,30.2-8.6l129.3-173.8C2427.4,2317.2,2420.8,2296.7,2403.8,2291.4z"/>
				
					<linearGradient id="SVGID_24_" gradientUnits="userSpaceOnUse" x1="1875.7089" y1="1161.1177" x2="2421.9395" y2="1161.1177" gradientTransform="matrix(1 0 0 -1 0 3710)">
					<stop  offset="0" style="stop-color:#D8DEE8"/>
					<stop  offset="1" style="stop-color:#FFFFFF"/>
				</linearGradient>
				<path class="st28" d="M2398.7,2445.2l-403.4-40.4c-10.3-1-20.2,4.2-25.2,13.3l-91.2,166.6c-8.5,15.5,0.8,34.8,18.2,37.8
					l403,70.2c11.5,2,22.9-3.9,27.8-14.5l91.6-196.3C2427,2465.7,2416.4,2447,2398.7,2445.2z"/>
				
					<linearGradient id="SVGID_25_" gradientUnits="userSpaceOnUse" x1="1615.7959" y1="1194.402" x2="2174.3252" y2="1194.402" gradientTransform="matrix(1 0 0 -1 0 3710)">
					<stop  offset="0" style="stop-color:#D8DEE8"/>
					<stop  offset="1" style="stop-color:#FFFFFF"/>
				</linearGradient>
				<path class="st29" d="M2160.1,2508.4L1798,2326.2c-9.3-4.7-20.4-3.3-28.3,3.4l-144.8,122.8c-13.5,11.4-11.7,32.7,3.5,41.8
					l351.1,209.9c10,6,22.8,4.5,31.2-3.6l155.8-150.5C2179.2,2537.7,2176,2516.4,2160.1,2508.4z"/>
				
					<linearGradient id="SVGID_26_" gradientUnits="userSpaceOnUse" x1="1508.5637" y1="1127.443" x2="1984.3224" y2="1127.443" gradientTransform="matrix(1 0 0 -1 0 3710)">
					<stop  offset="0" style="stop-color:#D8DEE8"/>
					<stop  offset="1" style="stop-color:#FFFFFF"/>
				</linearGradient>
				<path class="st30" d="M1952.3,2415.5l-393.7,96.6c-10.1,2.5-17.7,10.7-19.3,20.9l-30.4,187.4c-2.8,17.5,12.3,32.5,29.8,29.6
					l403.3-68.4c11.5-1.9,20.3-11.4,21.4-23l20.8-215.6C1985.9,2425.4,1969.6,2411.3,1952.3,2415.5z"/>
				
					<linearGradient id="SVGID_27_" gradientUnits="userSpaceOnUse" x1="2167.1572" y1="1234.5905" x2="2676.7703" y2="1234.5905" gradientTransform="matrix(1 0 0 -1 0 3710)">
					<stop  offset="0" style="stop-color:#D8DEE8"/>
					<stop  offset="1" style="stop-color:#FFFFFF"/>
				</linearGradient>
				<path class="st31" d="M2669.6,2559l-280.5-292.7c-7.2-7.5-18.1-9.9-27.8-6.3l-177.5,67.4c-16.5,6.3-22,27-10.7,40.6l260.9,315.1
					c7.4,9,20,11.9,30.6,7l197.1-89.8C2677.8,2593,2681.9,2571.8,2669.6,2559z"/>
				
					<linearGradient id="SVGID_28_" gradientUnits="userSpaceOnUse" x1="2504.5808" y1="1262.8807" x2="2944.1829" y2="1262.8807" gradientTransform="matrix(1 0 0 -1 0 3710)">
					<stop  offset="0" style="stop-color:#D8DEE8"/>
					<stop  offset="1" style="stop-color:#FFFFFF"/>
				</linearGradient>
				<path class="st32" d="M2940.8,2592l-199.2-353.1c-5.1-9-15.1-14.1-25.4-13l-188.7,21.3c-17.6,2-28,20.7-20.4,36.6l174.6,369.9
					c5,10.5,16.4,16.4,27.9,14.4l213.2-38.2C2940.4,2626.9,2949.6,2607.4,2940.8,2592z"/>
				
					<linearGradient id="SVGID_29_" gradientUnits="userSpaceOnUse" x1="2324.0256" y1="1269.5637" x2="2886.0312" y2="1269.5637" gradientTransform="matrix(1 0 0 -1 0 3710)">
					<stop  offset="0" style="stop-color:#D8DEE8"/>
					<stop  offset="1" style="stop-color:#FFFFFF"/>
				</linearGradient>
				<path class="st33" d="M2869.1,2402.1l-380.7-139.2c-9.7-3.6-20.6-1-27.7,6.6L2331,2408.3c-12.1,12.9-7.9,33.9,8.3,41.1
					l373,167.9c10.6,4.8,23.1,1.8,30.5-7.2l137.4-167.5C2891.4,2429,2885.8,2408.2,2869.1,2402.1z"/>
			</g>
			<g>
				<path class="st15" d="M1499,1662.3c54.2,14.7,162.8,52.2,256,150.7c134.1,141.7,144.6,312.5,149,385.4
					c3.6,59.3,23,364.9-195.7,525.4c-85.3,62.6-174.8,81-227.3,87.3c42.6,3.2,85.1,6.5,127.7,9.7c50.3-7.5,122.6-25.7,193-74.4
					c242.1-167.6,211.2-523.8,206.2-572.1c-7.5-73.3-27.2-267.2-186.7-403.5c-78.2-66.8-161.1-95-212.5-107.8
					C1572.2,1662.8,1535.6,1662.5,1499,1662.3z"/>
				<path class="st15" d="M1608.7,1663c-222.2-1.4-398.1,250.5-398.1,562.5c0,312.1,175.9,578.4,398.1,595.3
					c228.3,17.3,418.1-234,418.1-561.7S1837.1,1664.4,1608.7,1663z M1631,2791.5L1631,2791.5c-6.6,0-13.3-0.3-20-0.8
					c-97.8-7.4-190-69.1-259.6-173.6c-71.4-107.1-110.7-246.2-110.7-391.6c0-144.7,38.9-279.9,109.6-380.7
					c68.7-97.9,159.8-151.7,256.5-151.7h1.7c50.3,0.3,99.5,14.9,146.2,43.3c46.2,28.1,87.9,68.3,124,119.6
					c36.8,52.2,65.7,112.9,86,180.5c21.2,70.6,31.9,145.5,31.9,222.5c0,146.4-39.2,282.3-110.5,382.8
					C1817.7,2738.3,1727.1,2791.5,1631,2791.5z"/>
				<g>
					<path class="st15" d="M1210.7,2225.5c0-290.1,152-528.2,351.9-559.1c-14-2.1-28.3-3.3-42.7-3.4
						c-222.2-1.4-398.1,250.5-398.1,562.5c0,312.1,175.9,578.4,398.1,595.3c22.6,1.7,44.8,0.8,66.5-2.6
						C1374.8,2785.8,1210.7,2527,1210.7,2225.5z"/>
				</g>
				
					<linearGradient id="SVGID_30_" gradientUnits="userSpaceOnUse" x1="1993.1925" y1="1894.7166" x2="1071.4113" y2="1076.0704" gradientTransform="matrix(1 0 0 -1 0 3710)">
					<stop  offset="0" style="stop-color:#D8DEE8"/>
					<stop  offset="0.9964" style="stop-color:#FFFFFF"/>
				</linearGradient>
				<path class="st34" d="M1506.1,1661.9c-220-1.4-394.1,249.5-394.1,560.4s174.1,576.1,394.1,592.8
					c226,17.2,413.8-233.2,413.8-559.6S1732.1,1663.3,1506.1,1661.9z M1528,2785.8L1528,2785.8c-6.5,0-13.1-0.3-19.6-0.7
					c-96.7-7.3-187.8-68.7-256.7-172.7c-70.6-106.7-109.5-245.2-109.5-390.1c0-144.2,38.5-278.9,108.5-379.2
					c67.9-97.4,158-151.1,253.6-151.1h1.6c49.7,0.3,98.3,14.8,144.5,43c45.7,27.9,87,68,122.7,119.1c36.4,52,65,112.4,85.1,179.8
					c21,70.3,31.6,144.9,31.6,221.6c0,145.8-38.9,281.3-109.4,381.3C1712.6,2732.9,1623,2785.8,1528,2785.8z"/>
			</g>
			
				<linearGradient id="SVGID_31_" gradientUnits="userSpaceOnUse" x1="3006.2083" y1="2279.1934" x2="1274.9357" y2="741.6272" gradientTransform="matrix(1 0 0 -1 0 3710)">
				<stop  offset="0" style="stop-color:#AA80F9"/>
				<stop  offset="0.9964" style="stop-color:#6165D7"/>
			</linearGradient>
			<path class="st35" d="M3089.8,2045.6c-17.4-58.2-42.1-110.4-73.5-155.4c-30.9-44.1-66.6-78.8-106-102.9
				c-39.9-24.4-81.9-36.9-124.9-37.2h-1.4c-6.2,0-1290.2-58-1295.5-57.7l-13.8-0.5l0,0c-84.5,9.9-163.1,63.8-224,151.1
				c-70,100.4-108.5,235.1-108.5,379.2c0,144.9,38.9,283.4,109.5,390.1c68.9,104,160.1,165.4,256.7,172.7c6.5,0.5,13.1,0.7,19.6,0.7
				l0,0c29.9,0,1270.8-90.3,1276.4-90.3l0,0c82.1,0,159.5-45.7,218.1-128.8c61-86.5,94.5-203.5,94.5-329.5
				C3117.1,2170.8,3107.9,2106.4,3089.8,2045.6z"/>
			<g>
				<path class="st15" d="M2007.9,2174.3c-7.5-73.3-27.2-267.2-186.7-403.5c-78.2-66.8-161.1-95-212.5-107.8
					c-36.6-0.2-73.1-0.5-109.7-0.7c54.2,14.7,162.8,52.2,256,150.7c134.1,141.7,144.6,312.5,149,385.4
					c3.6,59.3,23,364.9-195.7,525.4c-66.6,48.9-135.7,70.8-187.8,81.1c-1.3,1.7-2.5,3.5-3.8,5.2c-0.8,1.2-1.6,2.4-2.5,3.5
					c31.5,2.4,63,4.8,94.4,7.2c50.3-7.5,122.6-25.7,193-74.4C2043.8,2578.7,2012.9,2222.5,2007.9,2174.3z"/>
				<path class="st15" d="M1608.7,1663c-36.6-0.2-71.9,6.4-105.5,19.1c7.3,8.1,18.7-3.6,25.9,4.5c26.5-8.7,49.8,6.6,77.7,6.6h1.7
					c50.3,0.3,99.5,14.9,146.2,43.3c46.2,28.1,87.9,68.3,124,119.6c36.8,52.2,65.7,112.9,86,180.5c21.2,70.6,31.9,145.5,31.9,222.5
					c0,146.4-39.2,282.3-110.5,382.8c-68.5,96.5-159.1,149.7-255.2,149.7l0,0c-6.6,0-13.3-0.3-19.9-0.8c-23-1.7-41.6,6.8-63.7-0.7
					c-6.9,8.1-17.7,2.9-24.1,11.4c27.5,10.5,56.2,17.1,85.6,19.4c228.3,17.3,418.1-234,418.1-561.7S1837.1,1664.4,1608.7,1663z"/>
				
					<linearGradient id="SVGID_32_" gradientUnits="userSpaceOnUse" x1="2014.2291" y1="1871.0303" x2="1092.4489" y2="1052.385" gradientTransform="matrix(1 0 0 -1 0 3710)">
					<stop  offset="0" style="stop-color:#D8DEE8"/>
					<stop  offset="0.9964" style="stop-color:#FFFFFF"/>
				</linearGradient>
				<path class="st36" d="M1506.1,1661.9c-6.8,0-13.6,0.2-20.4,0.6c8.9,9.9,17.8,19.8,26.6,29.7c47.5,1.5,93.9,15.9,138,42.9
					c45.7,27.9,87,68,122.7,119.1c36.4,52,65,112.4,85.1,179.8c21,70.3,31.6,144.9,31.6,221.6c0,145.8-38.9,281.3-109.4,381.3
					c-65.9,93.5-152.6,146.1-244.7,148.9c-6.6,7.9-12.9,16-18.9,24.4c-1.3,1.8-2.5,3.6-3.8,5.4c222.9,11.6,406.9-236.9,406.9-560
					C1919.9,1929.1,1732.1,1663.3,1506.1,1661.9z"/>
			</g>
			<ellipse class="st26" cx="1540" cy="2244.9" rx="355" ry="514.4"/>
			<g>
				<path class="st15" d="M1766.3,3183.4c-2,0-4-0.3-6-0.9l-500.7-157.4c-10.6-3.3-16.4-14.6-13.1-25.1l245-783.4
					c2.7-8.5,10.6-14.3,19.5-14.1s16.6,6.2,19,14.8l255.7,940.8c1.9,7.1-0.2,14.6-5.5,19.7
					C1776.4,3181.5,1771.4,3183.4,1766.3,3183.4z M1290.7,2992.8l446.6,140.4l-228.1-839.1L1290.7,2992.8z"/>
				<g>
					<ellipse class="st15" cx="1509.2" cy="2225.8" rx="90.5" ry="130.4"/>
					
						<linearGradient id="SVGID_33_" gradientUnits="userSpaceOnUse" x1="1327.7881" y1="1567.6274" x2="1618.6978" y2="1407.1252" gradientTransform="matrix(1 0 0 -1 0 3710)">
						<stop  offset="0" style="stop-color:#D8DEE8"/>
						<stop  offset="0.9964" style="stop-color:#FFFFFF"/>
					</linearGradient>
					<ellipse class="st37" cx="1479" cy="2225.8" rx="90.5" ry="130.4"/>
				</g>
			</g>
		</g>
		<g>
			
				<linearGradient id="SVGID_34_" gradientUnits="userSpaceOnUse" x1="2737.8115" y1="639.9012" x2="2755.8748" y2="410.0069" gradientTransform="matrix(1 0 0 -1 -626.2627 3710)">
				<stop  offset="3.597000e-03" style="stop-color:#26264F"/>
				<stop  offset="1" style="stop-color:#444B8C"/>
			</linearGradient>
			<path class="st38" d="M2146.8,3184.8c0,0-72.7,33-73.9,38.3s46.8-1.8,66.3-1c19.6,0.8,35.7-5,33.9-13.3s-8.6-29.1-8.6-29.1
				L2146.8,3184.8z"/>
			
				<linearGradient id="SVGID_35_" gradientUnits="userSpaceOnUse" x1="2784.394" y1="511.9102" x2="2781.1101" y2="750.0083" gradientTransform="matrix(1 0 0 -1 -626.2627 3710)">
				<stop  offset="0" style="stop-color:#AB316D"/>
				<stop  offset="1" style="stop-color:#792D3D"/>
			</linearGradient>
			<path class="st39" d="M2144.1,3157.9l4.4,32.7c0,0,11.5,4.1,19.2-0.7l3.3-35.9L2144.1,3157.9z"/>
			
				<linearGradient id="SVGID_36_" gradientUnits="userSpaceOnUse" x1="3079.1528" y1="666.7187" x2="3097.2158" y2="436.828" gradientTransform="matrix(1 0 0 -1 -626.2627 3710)">
				<stop  offset="3.597000e-03" style="stop-color:#26264F"/>
				<stop  offset="1" style="stop-color:#444B8C"/>
			</linearGradient>
			<path class="st40" d="M2486.5,3158.7l8.5,13.6c2.4,3.8,3.1,8.4,1.9,12.7c-3,11.3-8.9,33.3-11.4,39c-3.5,7.8-50.6,12.5-50.6,12.5
				s-4.2-5.9,5.6-13s16-8.3,19.5-18.8c3.4-10.5,5.7-40.3,5.7-40.3L2486.5,3158.7z"/>
			
				<linearGradient id="SVGID_37_" gradientUnits="userSpaceOnUse" x1="3097.2456" y1="516.2256" x2="3093.9617" y2="754.3287" gradientTransform="matrix(1 0 0 -1 -626.2627 3710)">
				<stop  offset="0" style="stop-color:#AB316D"/>
				<stop  offset="1" style="stop-color:#792D3D"/>
			</linearGradient>
			<path class="st41" d="M2451.3,3124.2c3.1,2.5,18.2,48.3,18.2,48.3s4.9,6.3,14.2-3c9.3-9.2,4.2-4.1,4.2-4.1l-1.7-45.1
				L2451.3,3124.2z"/>
			
				<linearGradient id="SVGID_38_" gradientUnits="userSpaceOnUse" x1="2101.3555" y1="897.6763" x2="2277.4382" y2="897.6763" gradientTransform="matrix(1 0 0 -1 0 3710)">
				<stop  offset="0" style="stop-color:#311944"/>
				<stop  offset="1" style="stop-color:#6B3976"/>
			</linearGradient>
			<path class="st42" d="M2104.1,2500.2c-3.8,97.7-4,203.8,1.6,317.1c6.3,127.6,19,245.6,35.1,352.5c6,0.2,12.2,0.2,18.8,0
				c4.4-0.1,8.7-0.3,12.8-0.6c8.3-22.2,18.1-51.3,26.9-86.2c9.3-36.6,14.8-69.5,18.8-100.9c14-110.6-2.4-120.3,9-202.2
				c10.1-72.6,24.4-75.4,41.2-178.5c18.2-111.8,4.7-128.6-1.9-134.7C2238.2,2441,2172.2,2458.6,2104.1,2500.2z"/>
			
				<linearGradient id="SVGID_39_" gradientUnits="userSpaceOnUse" x1="2113.5" y1="897.6546" x2="2277.3821" y2="897.6546" gradientTransform="matrix(1 0 0 -1 0 3710)">
				<stop  offset="3.597000e-03" style="stop-color:#26264F"/>
				<stop  offset="1" style="stop-color:#444B8C"/>
			</linearGradient>
			<path class="st43" d="M2266.3,2466.8c-26.8-24.6-88.1-9.7-152.8,27.8c74.5,80.4,82.6,132.6,73.6,166.5
				c-10.1,38.3-40.8,49.3-40.6,91.1c0.1,51.4,46.6,65,45.6,119.5c-0.7,36-21,35.6-25.9,80.1c-5.7,52.6,20.9,70.7,12.3,109.6
				c-3.7,16.7-14.3,38.6-44.5,61.1c2.2,16,4.4,31.8,6.7,47.3c6,0.2,12.2,0.2,18.8,0c4.4-0.1,8.7-0.3,12.8-0.6
				c8.3-22.2,18.1-51.3,26.9-86.2c9.3-36.6,14.8-69.5,18.8-100.9c14-110.6-2.4-120.3,9-202.2c10.1-72.6,24.4-75.4,41.2-178.5
				C2286.5,2489.6,2272.9,2472.9,2266.3,2466.8z"/>
			
				<linearGradient id="SVGID_40_" gradientUnits="userSpaceOnUse" x1="2150.2" y1="914.9729" x2="2504.6089" y2="914.9729" gradientTransform="matrix(1 0 0 -1 0 3710)">
				<stop  offset="0" style="stop-color:#311944"/>
				<stop  offset="1" style="stop-color:#6B3976"/>
			</linearGradient>
			<path class="st44" d="M2150.2,2498.6c64.1,93.8,133.3,210.6,195.1,350.3c46.7,105.6,80.6,204.8,105.5,293.1
				c3.4,1.6,11.3,4.7,21.5,3.3c13.8-1.8,22.1-10.7,24.3-13.1c10.1-63.3,9-117,5.6-155.7c-2.2-24.8-6.1-66.1-21.9-117
				c-17.7-57.1-29.9-60.3-53-120.7c-24-62.7-18.2-78.3-41.1-156.8c-9.4-32.2-25.2-80.2-51.3-137.6
				C2273.4,2462.5,2211.8,2480.5,2150.2,2498.6z"/>
			
				<linearGradient id="SVGID_41_" gradientUnits="userSpaceOnUse" x1="1826.1147" y1="1966.1685" x2="1728.9229" y2="1674.5919" gradientTransform="matrix(-0.9998 2.180000e-02 -2.180000e-02 -0.9998 3663.6189 3672.5361)">
				<stop  offset="0" style="stop-color:#AB316D"/>
				<stop  offset="1" style="stop-color:#792D3D"/>
			</linearGradient>
			<path class="st45" d="M1847,1830.8c0,0-12.4-14.9-20.4-26c-7.9-11.1-44.5-41.9-44.5-41.9s-2.6,5.1,5.3,12.9
				c7.9,7.9,24.4,21.3,20.8,27.2c-3.6,5.9-14,11.3-6.2,22.1c7.8,10.8,20.9,3,27.8,11.7s14.1,18.1,14.1,18.1L1847,1830.8z"/>
			
				<linearGradient id="SVGID_42_" gradientUnits="userSpaceOnUse" x1="2007.698" y1="1717.1584" x2="2173.9399" y2="1027.8915" gradientTransform="matrix(0.9998 -2.180000e-02 -2.180000e-02 -0.9998 75.9522 3750.718)">
				<stop  offset="0" style="stop-color:#FFC444"/>
				<stop  offset="0.3138" style="stop-color:#FBA94A"/>
				<stop  offset="0.9964" style="stop-color:#F36F56"/>
			</linearGradient>
			<path class="st46" d="M1848.7,1815.2c-8.3,10.4-16.6,20.8-24.9,31.2c10.6,45.9,33.2,115.1,85.8,182.3
				c55.8,71.2,174.7,177.9,248.7,143c45.1-21.3,106-94.5,84.2-129.7c-21-33.9-112.1-17.9-174.7-32
				C2006.6,1996.1,1927,1951.5,1848.7,1815.2z"/>
			
				<linearGradient id="SVGID_43_" gradientUnits="userSpaceOnUse" x1="2267.8721" y1="1485.7949" x2="2404.7388" y2="1485.7949" gradientTransform="matrix(0.9998 -2.180000e-02 -2.180000e-02 -0.9998 75.9522 3750.718)">
				<stop  offset="0" style="stop-color:#AA80F9"/>
				<stop  offset="0.9964" style="stop-color:#6165D7"/>
			</linearGradient>
			<path class="st47" d="M2420.4,2086c0,0,48.5,165.1,18.5,228.6c-30.1,63.5-125.9-6.2-125.9-6.2L2420.4,2086z"/>
			
				<linearGradient id="SVGID_44_" gradientUnits="userSpaceOnUse" x1="2258.8704" y1="1485.7911" x2="2395.7368" y2="1485.7911" gradientTransform="matrix(0.9998 -2.180000e-02 -2.180000e-02 -0.9998 75.9522 3750.718)">
				<stop  offset="0" style="stop-color:#FFC444"/>
				<stop  offset="0.3138" style="stop-color:#FBA94A"/>
				<stop  offset="0.9964" style="stop-color:#F36F56"/>
			</linearGradient>
			<path class="st48" d="M2411.4,2086.2c0,0,48.5,165.1,18.5,228.6c-30.1,63.5-125.9-6.2-125.9-6.2L2411.4,2086.2z"/>
			
				<linearGradient id="SVGID_45_" gradientUnits="userSpaceOnUse" x1="2146.1628" y1="1750.5541" x2="2312.4045" y2="1061.2886" gradientTransform="matrix(0.9998 -2.180000e-02 -2.180000e-02 -0.9998 75.9522 3750.718)">
				<stop  offset="0" style="stop-color:#FFC444"/>
				<stop  offset="0.3138" style="stop-color:#FBA94A"/>
				<stop  offset="0.9964" style="stop-color:#F36F56"/>
			</linearGradient>
			<path class="st49" d="M2269.5,2025c-62.3-1.1-110.3,0.9-136.8,28.6c-28,29.3,1.6,60.9-3,136c-7,114.9-79.5,144.5-82.4,260.9
				c-1,39.2,6.3,71.1,11.9,90.3c16.5,19.6,43.3,47.2,82.6,69.9c57.1,33.1,89.7,26.4,171.1,46.8c133.2,33.3,145.9,76.2,211.3,63.8
				c66.1-12.6,123.1-69.7,115.4-100.2c-4.6-18.3-31.2-12.5-62.6-39.8c-40.5-35.2-25.9-70-56.9-108.1
				c-44.6-54.8-104.2-19.4-142.2-66.9c-38.4-48-25.7-144.6,4.6-197.8c19.8-34.7,27.8-75.1,44.5-111.4c1.4-3,3-7.9,2.1-14.1
				c-3.4-23.3-42.6-35.2-72.4-43.8C2311.3,2026,2274.6,2025.1,2269.5,2025z"/>
			
				<linearGradient id="SVGID_46_" gradientUnits="userSpaceOnUse" x1="935.4114" y1="1730.7743" x2="989.4734" y2="1644.8466" gradientTransform="matrix(0.9998 -2.180000e-02 -2.180000e-02 -0.9998 1325.2184 3723.4829)">
				<stop  offset="0" style="stop-color:#FF9085"/>
				<stop  offset="1" style="stop-color:#FB6FBB"/>
			</linearGradient>
			<path class="st50" d="M2208.9,2023.7l12.2-4c0,0,3.6,16.6,43.1,17.8c21.9-0.5,35.8-13.1,35.8-13.1l8.5,5.9
				c0,0-17.9,23.4-47.2,23.4C2223.5,2053.8,2208.9,2023.7,2208.9,2023.7z"/>
			<g>
				
					<linearGradient id="SVGID_47_" gradientUnits="userSpaceOnUse" x1="2230.6047" y1="1460.6476" x2="2167.3218" y2="1358.2782" gradientTransform="matrix(0.9519 -0.3063 -0.3063 -0.9519 591.1995 4016.0552)">
					<stop  offset="0" style="stop-color:#AB316D"/>
					<stop  offset="1" style="stop-color:#792D3D"/>
				</linearGradient>
				<path class="st51" d="M2218.9,1970.3c-3.3-18.1,6.8-33.7,9-37c9.3-14,11.6-15.8,15.6-18.1l5.6-2.8c0,0,0.3-0.1,0.7-0.2
					c3.5-0.9,15.1-0.2,17.4,0.5c7.4,2.3,12.6,33.6,6.3,76.6c0.3,3.4,0.6,6.8,0.9,10.1c16.8-2.3,21.6-0.7,22.5,1.5
					c1.9,4.9-9.8,33.3-25.8,38.8c-20,7-47.9-11.3-49.6-17.9c-0.7-2.7-0.6-0.4,13.1-8.3c1.3-4,5.2-14.7,6.4-18.6
					C2238.2,1993.2,2221.3,1983.6,2218.9,1970.3z"/>
				
					<linearGradient id="SVGID_48_" gradientUnits="userSpaceOnUse" x1="1944.621" y1="2060.4167" x2="1887.1191" y2="1967.3992" gradientTransform="matrix(0.8526 -0.5224 -0.5224 -0.8526 1661.4602 4707.3818)">
					<stop  offset="0" style="stop-color:#AB316D"/>
					<stop  offset="1" style="stop-color:#792D3D"/>
				</linearGradient>
				<path class="st52" d="M2241.7,1955.7c3.7-4.2,9.1,0.6,8.6,6.4s-6.7,11.4-12.1,9.7C2232.8,1970.2,2236.7,1961.4,2241.7,1955.7z"
					/>
				<path class="st53" d="M2834.9,1764.7c-81.3-46-215.7,17.1-276.5,94.6c-28.3,36-37.5,70.8-79.5,87
					c-31.9,12.3-87.4,16.7-125.9-9.7c-4.9-3.3-24.5-17.5-52.6-34.3c-12.4-7.4-24.5-14.2-39.2-11.9c-3.7,0.6-16.2,2.5-21.5,12.6
					c-4.3,8.2-2.4,19.5,1.9,26.6c2.6,4.3,4.2,4.3,5,7.4c2.2,8.7-12.2,17.4-9.9,21.4c1.6,2.9,9.3-0.9,12,2.5
					c2.9,3.7-4.8,10.2-5.2,22.1c-5.6,7.1-6.3,20.4-2.7,36.9c5.2,24.1,13.7,42.4,22.8,55.3c43.5,62.1,74.7,106.5,120.5,122.1
					c60.7,20.7,93.9-27.1,216.7-72.5c168.1-62.1,229.2-18,277.7-77.3C2938.9,1973.5,2919.3,1812.4,2834.9,1764.7z"/>
			</g>
			<g class="st9">
				
					<linearGradient id="SVGID_49_" gradientUnits="userSpaceOnUse" x1="2107.1995" y1="1741.1559" x2="2273.4409" y2="1051.8901" gradientTransform="matrix(0.9998 -2.180000e-02 -2.180000e-02 -0.9998 75.9522 3750.718)">
					<stop  offset="0" style="stop-color:#FFC444"/>
					<stop  offset="0.3138" style="stop-color:#FBA94A"/>
					<stop  offset="0.9964" style="stop-color:#F36F56"/>
				</linearGradient>
				<path class="st54" d="M2477.4,2622.6c-62.7-41.6-119.4,6-163.7-30.7c-36.5-30.2-6.6-69.6-46-122.8
					c-43.3-58.3-103.3-43.4-117.7-87c-14.8-45,44.6-75.6,46-138.1c0.8-31.9-13.6-73.5-70.8-123.3c3.1,18.2,6.3,40.4,4.5,68.7
					c-7,114.9-79.5,144.5-82.4,260.9c-1,39.2,6.3,71.1,11.9,90.3c16.5,19.6,43.3,47.2,82.6,69.9c57.1,33.1,89.7,26.4,171.1,46.8
					c133.2,33.3,145.9,76.2,211.3,63.8c19.1-3.6,37.3-11,53.5-20.3c-19-3-33.2-9.4-44.1-16.9C2505,2664.2,2510,2644.4,2477.4,2622.6
					z"/>
			</g>
		</g>
	</g>
</g>
</svg>
