<?xml version="1.0" encoding="utf-8"?>
<!-- Generator: Adobe Illustrator 24.3.0, SVG Export Plug-In . SVG Version: 6.00 Build 0)  -->
<svg version="1.1" id="Layer_1" xmlns="http://www.w3.org/2000/svg" xmlns:xlink="http://www.w3.org/1999/xlink" x="0px" y="0px"
	 viewBox="0 0 500 500" style="enable-background:new 0 0 500 500;" xml:space="preserve">
<style type="text/css">
	.st0{display:none;}
	.st1{display:inline;fill:#F2F2F2;}
	.st2{fill:url(#SVGID_1_);}
	.st3{enable-background:new    ;}
	.st4{fill:#2D2463;}
	.st5{fill:url(#SVGID_2_);}
	.st6{fill:url(#SVGID_3_);}
	.st7{fill:url(#SVGID_4_);}
	.st8{fill:url(#SVGID_5_);}
	.st9{fill:url(#SVGID_6_);}
	.st10{fill:url(#SVGID_7_);}
	.st11{fill:url(#SVGID_8_);}
	.st12{fill:#F9FBFC;}
	.st13{fill:#E9A4FF;}
	.st14{fill:#7554EA;}
	.st15{fill:#C83BEA;}
	.st16{fill:url(#SVGID_9_);}
	.st17{fill:url(#SVGID_10_);}
	.st18{fill:url(#SVGID_11_);}
	.st19{fill:url(#SVGID_12_);}
	.st20{fill:url(#SVGID_13_);}
	.st21{fill:url(#SVGID_14_);}
	.st22{fill:url(#SVGID_15_);}
	.st23{fill:url(#SVGID_16_);}
	.st24{fill:#007E93;}
	.st25{fill:url(#SVGID_17_);}
	.st26{fill:url(#SVGID_18_);}
	.st27{fill:url(#SVGID_19_);}
	.st28{display:none;fill:url(#SVGID_20_);}
	.st29{fill:url(#SVGID_21_);}
	.st30{fill:#AC21CE;}
	.st31{fill:#8D02AF;}
	.st32{fill:#6035D8;}
	.st33{fill:#4505B3;}
	.st34{fill:#DB6FF7;}
	.st35{fill:#B631DE;}
	.st36{fill:url(#SVGID_22_);}
	.st37{fill:url(#SVGID_23_);}
	.st38{fill:url(#SVGID_24_);}
	.st39{fill:url(#SVGID_25_);}
	.st40{fill:url(#SVGID_26_);}
	.st41{fill:url(#SVGID_27_);}
	.st42{fill:url(#SVGID_28_);}
	.st43{fill:url(#SVGID_29_);}
	.st44{fill:url(#SVGID_30_);}
	.st45{fill:url(#SVGID_31_);}
	.st46{fill:url(#SVGID_32_);}
	.st47{fill:url(#SVGID_33_);}
	.st48{fill:url(#SVGID_34_);}
	.st49{fill:url(#SVGID_35_);}
	.st50{fill:url(#SVGID_36_);}
	.st51{fill:url(#SVGID_37_);}
	.st52{fill:url(#SVGID_38_);}
</style>
<g id="BACKGROUND" class="st0">
	<rect class="st1" width="500" height="500"/>
</g>
<g id="OBJECTS">
	
		<radialGradient id="SVGID_1_" cx="353.4436" cy="318.4876" r="210.7942" gradientTransform="matrix(1.0836 -0.3295 -0.5082 -0.5571 32.7539 579.3691)" gradientUnits="userSpaceOnUse">
		<stop  offset="2.070000e-02" style="stop-color:#FFFFFF"/>
		<stop  offset="1" style="stop-color:#D4D4D4;stop-opacity:0"/>
	</radialGradient>
	<ellipse class="st2" cx="253.9" cy="285.5" rx="242.8" ry="140.1"/>
	<g>
		<g>
			<g>
				
					<image style="overflow:visible;enable-background:new    ;" width="717" height="542" xlink:href="969E5EA8.png"  transform="matrix(0.2387 0 0 0.2387 318.6 247.4978)">
				</image>
			</g>
			<g>
				
					<image style="overflow:visible;enable-background:new    ;" width="746" height="550" xlink:href="969E5EA9.png"  transform="matrix(0.2383 0 0 0.2383 230.9311 318.175)">
				</image>
			</g>
			<g>
				
					<image style="overflow:visible;enable-background:new    ;" width="871" height="667" xlink:href="969E5EAF.png"  transform="matrix(0.2383 0 0 0.2383 7.08 164.4064)">
				</image>
			</g>
			<g>
				
					<image style="overflow:visible;enable-background:new    ;" width="1046" height="733" xlink:href="969E5EAA.png"  transform="matrix(0.2387 0 0 0.2387 9.925 278.575)">
				</image>
			</g>
			<g>
				
					<image style="overflow:visible;enable-background:new    ;" width="746" height="550" xlink:href="969E5EAB.png"  transform="matrix(0.2383 0 0 0.2383 230.9311 318.175)">
				</image>
			</g>
			<g>
				
					<image style="overflow:visible;enable-background:new    ;" width="871" height="667" xlink:href="969E5EA6.png"  transform="matrix(0.2383 0 0 0.2383 7.08 164.4064)">
				</image>
			</g>
			<g>
				
					<image style="overflow:visible;enable-background:new    ;" width="1046" height="733" xlink:href="969E5EA7.png"  transform="matrix(0.2387 0 0 0.2387 9.925 278.575)">
				</image>
			</g>
			<g>
				
					<image style="overflow:visible;enable-background:new    ;" width="746" height="550" xlink:href="969E5EB8.png"  transform="matrix(0.2383 0 0 0.2383 230.9311 318.175)">
				</image>
			</g>
			<g>
				
					<image style="overflow:visible;enable-background:new    ;" width="871" height="667" xlink:href="969E5EBB.png"  transform="matrix(0.2383 0 0 0.2383 7.08 164.4064)">
				</image>
			</g>
			<g>
				
					<image style="overflow:visible;enable-background:new    ;" width="1046" height="733" xlink:href="C4E3AE97.png"  transform="matrix(0.2387 0 0 0.2387 9.925 278.575)">
				</image>
			</g>
		</g>
		<g>
			
				<image style="overflow:visible;enable-background:new    ;" width="1500" height="1017" xlink:href="C4E3AE95.png"  transform="matrix(0.2388 0 0 0.2388 91.725 158.335)">
			</image>
		</g>
	</g>
	<g>
		<g>
			<g class="st3">
				<g>
					<path class="st4" d="M422.1,312.7c0.9,0.5,1,1.4,0.2,1.8l-26.5,15.4c-0.8,0.5-2.2,0.4-3.1-0.1l-0.5-0.3c-0.9-0.5-1-1.4-0.2-1.8
						l26.5-15.4c0.8-0.5,2.2-0.4,3.1,0.1L422.1,312.7z"/>
				</g>
				<g>
					
						<linearGradient id="SVGID_2_" gradientUnits="userSpaceOnUse" x1="462.0613" y1="200.6806" x2="361.7856" y2="167.8417" gradientTransform="matrix(1 0 0 -1 0 500)">
						<stop  offset="0" style="stop-color:#E8E9FF"/>
						<stop  offset="0.9996" style="stop-color:#C0C0F6"/>
					</linearGradient>
					<path class="st5" d="M454.3,308.2l-6.8,23l-12.4-11.9l-29.8,17.3c-7.1,4.1-18.7,4.1-25.8,0l-9.5-5.5c-7.1-4.1-7.2-10.9-0.1-15
						l52.9-30.7c7.1-4.1,18.7-4.1,25.8,0l9.5,5.5c7.1,4.1,7.2,10.8,0.1,15L454.3,308.2z M386.1,324l50.4-29.3
						c0.9-0.5,0.8-1.5-0.3-2.1s-2.7-0.7-3.6-0.1l-50.4,29.3c-0.9,0.5-0.8,1.5,0.3,2.1S385.2,324.6,386.1,324 M395.8,329.9l26.5-15.4
						c0.8-0.5,0.7-1.3-0.2-1.8l-0.5-0.3c-0.9-0.5-2.3-0.6-3.1-0.1L392,327.7c-0.8,0.5-0.7,1.3,0.2,1.8l0.5,0.3
						C393.6,330.3,395,330.4,395.8,329.9"/>
				</g>
				<g>
					<path class="st4" d="M436.2,292.7c1.1,0.6,1.2,1.5,0.3,2.1L386.1,324c-0.9,0.5-2.5,0.5-3.6-0.1s-1.2-1.5-0.3-2.1l50.4-29.3
						C433.5,292,435.1,292,436.2,292.7z"/>
				</g>
				
					<linearGradient id="SVGID_3_" gradientUnits="userSpaceOnUse" x1="471.7873" y1="186.2617" x2="360.3701" y2="155.7686" gradientTransform="matrix(1 0 0 -1 0 500)">
					<stop  offset="0" style="stop-color:#B6B9FE"/>
					<stop  offset="0.9996" style="stop-color:#5861D6"/>
				</linearGradient>
				<path class="st6" d="M463.5,299c0,0.2,0,0.4-0.1,0.6c0,0.2-0.1,0.3-0.1,0.5c0,0.2-0.1,0.4-0.2,0.5c0,0.1-0.1,0.3-0.2,0.5
					c-0.1,0.2-0.2,0.4-0.3,0.6c-0.1,0.1-0.2,0.3-0.2,0.4c-0.1,0.2-0.3,0.4-0.4,0.6c-0.1,0.1-0.2,0.2-0.3,0.4
					c-0.2,0.3-0.5,0.6-0.8,0.8c-0.1,0.1-0.2,0.2-0.3,0.3c-0.2,0.1-0.4,0.3-0.5,0.5c-0.2,0.1-0.3,0.3-0.5,0.4
					c-0.2,0.1-0.4,0.3-0.6,0.4c-0.2,0.1-0.5,0.3-0.7,0.5l-3.9,2.3l-6.8,23l-12.4-11.9l-29.8,17.3c-0.5,0.3-1.1,0.6-1.7,0.9
					c-0.2,0.1-0.4,0.1-0.5,0.2c-0.5,0.2-0.9,0.4-1.4,0.5c-0.2,0.1-0.4,0.1-0.5,0.2c-0.3,0.1-0.6,0.2-0.9,0.3
					c-0.2,0.1-0.5,0.1-0.7,0.2c-0.3,0.1-0.7,0.1-1,0.2c-0.2,0-0.5,0.1-0.7,0.1c-0.7,0.1-1.4,0.2-2.1,0.3c-0.2,0-0.4,0-0.6,0
					c-0.4,0-0.8,0.1-1.3,0.1c-0.3,0-0.5,0-0.8,0c-0.3,0-0.7,0-1,0c-0.3,0-0.5,0-0.8,0c-0.3,0-0.6,0-0.9,0c-0.3,0-0.6,0-0.8-0.1
					c-0.3,0-0.6-0.1-0.9-0.1c-0.3,0-0.5-0.1-0.8-0.1c-0.3,0-0.6-0.1-1-0.2c-0.2,0-0.5-0.1-0.8-0.1c-0.4-0.1-0.8-0.2-1.1-0.3
					c-0.2,0-0.4-0.1-0.6-0.2c-0.7-0.2-1.3-0.4-2-0.7c-0.3-0.1-0.6-0.2-0.9-0.4c-0.2-0.1-0.3-0.1-0.5-0.2c-0.5-0.2-0.9-0.5-1.3-0.7
					l-9.5-5.5c-3.6-2.1-5.4-4.8-5.4-7.5l0,8.7c0,2.7,1.8,5.5,5.4,7.5l9.5,5.5c0.4,0.2,0.9,0.5,1.3,0.7c0.1,0.1,0.3,0.1,0.5,0.2
					c0.3,0.1,0.5,0.2,0.8,0.4c0,0,0.1,0,0.1,0c0.6,0.2,1.3,0.5,2,0.7c0,0,0.1,0,0.1,0c0.1,0,0.3,0.1,0.5,0.1
					c0.4,0.1,0.8,0.2,1.1,0.3c0.1,0,0.2,0,0.3,0.1c0.1,0,0.3,0,0.5,0.1c0.3,0.1,0.6,0.1,1,0.2c0.1,0,0.2,0,0.4,0.1
					c0.1,0,0.3,0,0.4,0c0.3,0,0.6,0.1,0.9,0.1c0.1,0,0.3,0,0.4,0c0.1,0,0.3,0,0.4,0c0.3,0,0.6,0,0.9,0c0.1,0,0.3,0,0.5,0
					c0.1,0,0.2,0,0.4,0c0.3,0,0.7,0,1,0c0.2,0,0.3,0,0.5,0c0.1,0,0.2,0,0.3,0c0.4,0,0.8,0,1.3-0.1c0.2,0,0.3,0,0.5,0
					c0,0,0.1,0,0.1,0c0.7-0.1,1.4-0.2,2.1-0.3c0,0,0.1,0,0.1,0c0.2,0,0.4-0.1,0.6-0.1c0.3-0.1,0.7-0.1,1-0.2
					c0.2-0.1,0.5-0.1,0.7-0.2c0.3-0.1,0.6-0.2,0.9-0.3c0.1,0,0.1,0,0.2-0.1c0.1,0,0.2-0.1,0.3-0.1c0.5-0.2,1-0.3,1.4-0.5
					c0.2-0.1,0.4-0.1,0.5-0.2c0.6-0.3,1.2-0.5,1.7-0.9l29.8-17.3l12.4,11.9l6.8-23l3.9-2.3c0.1,0,0.1-0.1,0.2-0.1
					c0.2-0.1,0.3-0.2,0.5-0.3c0.2-0.1,0.4-0.3,0.6-0.4c0.2-0.1,0.4-0.3,0.5-0.4c0.2-0.1,0.4-0.3,0.5-0.5c0,0,0.1-0.1,0.1-0.1
					c0.1-0.1,0.1-0.1,0.2-0.2c0.3-0.3,0.5-0.5,0.8-0.8c0-0.1,0.1-0.1,0.2-0.2c0-0.1,0.1-0.1,0.1-0.2c0.2-0.2,0.3-0.4,0.4-0.6
					c0-0.1,0.1-0.2,0.2-0.3c0,0,0-0.1,0.1-0.1c0.1-0.2,0.2-0.4,0.3-0.6c0-0.1,0.1-0.2,0.1-0.3c0,0,0-0.1,0-0.1
					c0.1-0.2,0.1-0.4,0.2-0.5c0-0.1,0.1-0.2,0.1-0.4c0,0,0-0.1,0-0.1c0-0.2,0-0.4,0.1-0.6c0-0.1,0-0.2,0-0.4c0,0,0-0.1,0-0.2l0-8.7
					C463.5,298.6,463.5,298.8,463.5,299z"/>
			</g>
		</g>
		<g>
			<g>
				<g class="st3">
					
						<linearGradient id="SVGID_4_" gradientUnits="userSpaceOnUse" x1="382.6703" y1="124.2147" x2="266.0039" y2="92.8813" gradientTransform="matrix(1 0 0 -1 0 500)">
						<stop  offset="0" style="stop-color:#B6B9FE"/>
						<stop  offset="0.9996" style="stop-color:#5861D6"/>
					</linearGradient>
					<path class="st7" d="M382.9,368.4c0,0.3,0,0.6-0.1,0.9c0,0.2-0.1,0.3-0.1,0.5c-0.1,0.3-0.1,0.6-0.2,0.8
						c-0.1,0.2-0.1,0.3-0.2,0.5c-0.1,0.3-0.3,0.6-0.4,0.9c-0.1,0.2-0.2,0.3-0.3,0.5c0,0.1-0.1,0.2-0.1,0.2c-0.2,0.3-0.4,0.6-0.6,0.9
						c0,0-0.1,0.1-0.1,0.1c-0.3,0.3-0.6,0.7-0.9,1c-0.1,0.1-0.2,0.2-0.3,0.3c-0.2,0.2-0.5,0.5-0.8,0.7c-0.1,0.1-0.2,0.2-0.3,0.3
						c-0.4,0.3-0.8,0.6-1.2,0.9c-0.3,0.2-0.6,0.4-0.9,0.6c-0.1,0.1-0.2,0.1-0.3,0.2l-53.3,31c-0.5,0.3-0.9,0.5-1.4,0.7
						c-0.2,0.1-0.4,0.1-0.5,0.2c-0.3,0.1-0.7,0.3-1,0.4c-0.5,0.1-1,0.3-1.5,0.4c-0.1,0-0.3,0.1-0.4,0.1c-0.5,0.1-0.9,0.2-1.4,0.3
						c-0.6,0.1-1.3,0.3-1.9,0.4c-0.1,0-0.3,0-0.4,0.1c-1,0.2-2,0.3-3,0.4c0,0-0.1,0-0.1,0c-0.8,0.1-1.6,0.1-2.4,0.2
						c-0.2,0-0.4,0-0.6,0c-0.7,0-1.5,0-2.2,0c0,0-0.1,0-0.1,0c-0.7,0-1.5-0.1-2.2-0.1c-0.2,0-0.4,0-0.6-0.1c-0.6,0-1.1-0.1-1.7-0.2
						c-0.2,0-0.4,0-0.6-0.1c-0.7-0.1-1.5-0.2-2.2-0.4c-0.1,0-0.2,0-0.3-0.1c-0.7-0.1-1.4-0.3-2.1-0.5c-0.2,0-0.3-0.1-0.5-0.1
						c-0.9-0.3-1.8-0.6-2.6-0.9c-0.2-0.1-0.4-0.1-0.5-0.2c-0.4-0.2-0.8-0.3-1.2-0.5c-0.2-0.1-0.4-0.2-0.5-0.2
						c-0.6-0.3-1.1-0.6-1.6-0.9c-4.4-2.5-6.8-5.7-7.3-9l0-2.8c-0.2-0.1-0.4-0.3-0.6-0.4l0-6.3c-1.1-1.1-2-2.2-2.8-3.3
						c-1.2-1.9-1.8-3.9-1.8-6l0,7c0,2.5,0.9,4.9,2.7,7.2l0,5.2c0,0.6,0.2,1.3,0.6,1.9c0.4,0.6,1,1.1,1.7,1.6v1.5
						c0,3.8,2.5,7.5,7.5,10.4c0.5,0.3,1.1,0.6,1.6,0.9c0.2,0.1,0.4,0.2,0.5,0.2c0.4,0.2,0.8,0.4,1.2,0.5c0.1,0,0.2,0.1,0.3,0.1
						c0.1,0,0.2,0,0.2,0.1c0.9,0.3,1.7,0.6,2.6,0.9c0,0,0.1,0,0.2,0c0.1,0,0.2,0,0.3,0.1c0.7,0.2,1.4,0.4,2.1,0.5
						c0.1,0,0.1,0,0.2,0.1c0,0,0.1,0,0.1,0c0.7,0.1,1.5,0.3,2.2,0.4c0.1,0,0.1,0,0.2,0c0.1,0,0.3,0,0.4,0c0.6,0.1,1.1,0.1,1.7,0.2
						c0.1,0,0.2,0,0.4,0c0.1,0,0.2,0,0.2,0c0.7,0.1,1.5,0.1,2.2,0.1h0c0,0,0,0,0.1,0c0.7,0,1.5,0,2.2,0c0.1,0,0.2,0,0.3,0
						c0.1,0,0.2,0,0.3,0c0.8,0,1.6-0.1,2.4-0.2c0,0,0,0,0.1,0h0c1-0.1,2-0.2,3-0.4c0.1,0,0.2,0,0.2,0c0,0,0.1,0,0.1,0
						c0.6-0.1,1.3-0.2,1.9-0.4c0.3,0,0.5-0.1,0.8-0.1c0.2,0,0.4-0.1,0.6-0.1c0.1,0,0.3-0.1,0.4-0.1c0.5-0.1,1-0.2,1.4-0.4
						c0,0,0,0,0,0c0.4-0.1,0.7-0.3,1-0.4c0.2-0.1,0.4-0.1,0.5-0.2c0.5-0.2,1-0.5,1.4-0.7l53.3-31c0.1,0,0.1-0.1,0.2-0.1
						c0,0,0.1,0,0.1-0.1c0.3-0.2,0.6-0.4,0.9-0.6c0.4-0.3,0.8-0.6,1.2-0.9c0.1-0.1,0.2-0.2,0.3-0.3c0.1-0.1,0.2-0.2,0.3-0.3
						c0.2-0.1,0.3-0.3,0.5-0.5c0.1-0.1,0.2-0.2,0.3-0.3c0.3-0.3,0.6-0.6,0.8-1c0,0,0,0,0,0c0,0,0.1-0.1,0.1-0.1
						c0.2-0.3,0.4-0.6,0.6-0.9c0-0.1,0.1-0.2,0.1-0.2c0-0.1,0.1-0.1,0.1-0.2c0.1-0.1,0.1-0.2,0.1-0.3c0.1-0.3,0.3-0.6,0.4-0.9
						c0-0.1,0.1-0.1,0.1-0.2c0-0.1,0-0.2,0.1-0.3c0.1-0.3,0.2-0.6,0.2-0.8c0-0.1,0.1-0.2,0.1-0.3c0-0.1,0-0.1,0-0.2
						c0-0.3,0.1-0.6,0.1-0.9c0-0.1,0-0.2,0-0.3c0-0.1,0-0.1,0-0.2l0-7C382.9,368,382.9,368.2,382.9,368.4z"/>
				</g>
			</g>
			<g>
				
					<linearGradient id="SVGID_5_" gradientUnits="userSpaceOnUse" x1="374.5115" y1="122.4989" x2="265.1779" y2="111.8322" gradientTransform="matrix(1 0 0 -1 0 500)">
					<stop  offset="0" style="stop-color:#E8E9FF"/>
					<stop  offset="0.9996" style="stop-color:#C0C0F6"/>
				</linearGradient>
				<path class="st8" d="M375.5,357.4c9.3,5.4,9.9,13.9,1.8,19.6c-0.4,0.3-0.8,0.6-1.2,0.8l-53.3,31c-1.8,1-4,1.7-6.3,2.1
					c-9.1,2.2-20,1.1-27.5-3.2c-5.6-3.2-8-7.6-7.3-11.8c-3.1-1.9-3.3-4.8-0.6-6.8c-7.2-6.8-5.8-15.8,4.3-21.6
					c6.7-3.9,15.8-5.6,24.7-5.1c1-1.8,2.7-3.5,5.2-4.9c7.4-4.3,18.9-4.8,27.3-1.5C352.3,351.8,366.5,352.2,375.5,357.4z"/>
			</g>
			<g>
				<g>
					<path class="st4" d="M325.8,369.6l-4.5-0.7c-0.6-0.1-1.2,0.2-1.3,0.5l-0.7,1.5v0c-1.4,0-3,0.1-4.5,0.3l-1.3-1.3
						c-0.3-0.3-1-0.4-1.5-0.2l-4,1.3c-0.5,0.2-0.7,0.5-0.4,0.8l1.3,1.3h0c-1.1,0.6-2,1.1-2.7,2l-2.6-0.4c-0.6-0.1-1.2,0.1-1.4,0.5
						l-1.2,2.6c-0.1,0.3,0.3,0.5,0.9,0.6l2.6,0.4h0c-0.1,1,0.1,1.8,0.5,2.6l-2.3,0.8c-0.5,0.2-0.7,0.5-0.4,0.8l2.3,2.3
						c0.3,0.3,1,0.4,1.5,0.2l2.3-0.8h0c1,0.6,2,1.1,3.6,1.6l-0.7,1.5c-0.1,0.3,0.2,0.6,0.7,0.7l4.5,0.7c0.6,0.1,1,0,1.1-0.4l0.7-1.5
						v0c1.7,0.1,3-0.1,4.5-0.3l1.4,1.3c0.3,0.3,1,0.4,1.5,0.2l4-1.3c0.5-0.2,0.7-0.5,0.4-0.9l-1.3-1.4l0,0c1.1-0.6,2-1.2,2.8-2.1
						l2.6,0.4c0.6,0.1,1,0,1.2-0.3l1.2-2.6c0.1-0.3-0.1-0.7-0.7-0.8l-2.6-0.4h0c0.1-1-0.1-1.7-0.6-2.5l2.3-0.7
						c0.5-0.2,0.7-0.5,0.4-0.8l-2.3-2.3c-0.3-0.3-1-0.4-1.5-0.2l-2.3,0.8h0c-1-0.6-2.1-1.1-3.6-1.6l0.7-1.5
						C326.5,370.1,326.3,369.7,325.8,369.6z M312.2,379.7c-0.1-0.5,0-1,0.2-1.5c0.3-0.6,0.8-1.1,1.5-1.6c0.1,0,0.1-0.1,0.2-0.1
						c0,0,0.1,0,0.1-0.1c0.1,0,0.2-0.1,0.2-0.1s0.2-0.1,0.2-0.1c0,0,0.1,0,0.1-0.1c0.2-0.1,0.4-0.1,0.5-0.2c0,0,0.1,0,0.1,0
						c0.1,0,0.2-0.1,0.3-0.1c0,0,0.1,0,0.1,0c0.1,0,0.2,0,0.3-0.1c0,0,0.1,0,0.1,0c0.1,0,0.1,0,0.2,0c0.1,0,0.2,0,0.2,0
						c0.1,0,0.2,0,0.3,0c0.1,0,0.3,0,0.4-0.1c0.1,0,0.1,0,0.2,0c0.1,0,0.2,0,0.3,0c0.2,0,0.3,0,0.5,0c0.1,0,0.2,0,0.3,0
						c0.5,0,1.1,0,1.7,0.1c1,0.2,1.9,0.4,2.6,0.8c0.1,0.1,0.2,0.1,0.4,0.2c0.1,0,0.1,0.1,0.2,0.1c0.1,0,0.1,0.1,0.2,0.1
						c0.2,0.1,0.3,0.2,0.5,0.4c0.1,0,0.1,0.1,0.2,0.2c0.1,0.1,0.1,0.2,0.2,0.2c0,0.1,0.1,0.1,0.1,0.2c0,0,0,0.1,0.1,0.1
						c0,0.1,0.1,0.1,0.1,0.2c0,0.1,0.1,0.2,0.1,0.3c0,0.1,0,0.1,0.1,0.2c0.2,0.6,0.2,1.2-0.1,1.8c-0.2,0.5-0.6,1-1.2,1.4
						c-0.1,0-0.1,0.1-0.2,0.1c-0.2,0.1-0.4,0.3-0.7,0.4c-0.1,0-0.2,0.1-0.2,0.1c0,0-0.1,0-0.1,0.1c-0.1,0-0.3,0.1-0.4,0.2
						c-1.5,0.6-3.4,0.8-5.3,0.5c-0.9-0.1-1.7-0.4-2.4-0.7c-0.3-0.1-0.6-0.3-0.8-0.4c-0.1,0-0.2-0.1-0.2-0.2
						c-0.2-0.1-0.4-0.3-0.5-0.4s-0.3-0.3-0.4-0.5c0,0,0-0.1-0.1-0.1c0-0.1-0.1-0.1-0.1-0.2c0-0.1-0.1-0.1-0.1-0.2
						c-0.1-0.1-0.1-0.2-0.1-0.4C312.3,379.9,312.3,379.8,312.2,379.7C312.3,379.8,312.3,379.7,312.2,379.7z"/>
					<path class="st4" d="M347.2,370.6l-2.9,0.2c-0.4,0-0.6,0.3-0.5,0.5l0.2,1l0,0c-0.8,0.2-1.7,0.5-2.5,0.8l-1.3-0.6
						c-0.3-0.1-0.7-0.1-0.9,0.1l-1.8,1.3c-0.2,0.2-0.2,0.4,0.1,0.5l1.3,0.6h0c-0.4,0.5-0.7,0.9-0.8,1.5l-1.6,0.1
						c-0.4,0-0.6,0.2-0.6,0.5l0.4,1.7c0,0.2,0.4,0.3,0.8,0.2l1.6-0.1h0c0.3,0.6,0.8,1,1.4,1.5l-1,0.8c-0.2,0.2-0.2,0.4,0.1,0.5
						l2.3,1c0.3,0.1,0.7,0.1,0.9-0.1l1-0.8h0c0.8,0.2,1.6,0.4,2.7,0.4l0.2,1c0,0.2,0.3,0.3,0.7,0.3l2.9-0.2c0.4,0,0.5-0.2,0.5-0.4
						l-0.2-1l0,0c1-0.2,1.7-0.5,2.5-0.8l1.4,0.6c0.3,0.1,0.7,0.1,0.9-0.1l1.8-1.3c0.2-0.2,0.2-0.4-0.1-0.5l-1.3-0.6l0,0
						c0.4-0.5,0.6-1,0.8-1.6l1.6-0.1c0.4,0,0.6-0.1,0.6-0.3l-0.4-1.7c0-0.2-0.4-0.4-0.7-0.4l-1.6,0.1h0c-0.3-0.6-0.8-1-1.4-1.4
						l1-0.8c0.2-0.2,0.2-0.4-0.1-0.5l-2.3-1c-0.3-0.1-0.7-0.1-1,0.1l-1,0.8l0,0c-0.8-0.2-1.7-0.4-2.8-0.4l-0.2-1
						C347.8,370.8,347.6,370.6,347.2,370.6z M343.5,378.3c-0.2-0.3-0.4-0.5-0.5-0.9c-0.1-0.4,0-0.8,0.2-1.1c0,0,0-0.1,0.1-0.1
						c0,0,0,0,0,0c0,0,0.1-0.1,0.1-0.1s0.1-0.1,0.1-0.1c0,0,0,0,0,0c0.1-0.1,0.1-0.1,0.2-0.2c0,0,0,0,0.1,0c0,0,0.1-0.1,0.1-0.1
						c0,0,0,0,0.1,0c0,0,0.1-0.1,0.1-0.1c0,0,0,0,0.1,0c0,0,0.1,0,0.1-0.1c0,0,0.1,0,0.1-0.1c0,0,0.1,0,0.2-0.1
						c0.1,0,0.1-0.1,0.2-0.1c0,0,0.1,0,0.1,0c0.1,0,0.1,0,0.2-0.1c0.1,0,0.2,0,0.3-0.1c0.1,0,0.1,0,0.2,0c0.3-0.1,0.7-0.1,1-0.1
						c0.6,0,1.3,0,1.8,0.1c0.1,0,0.2,0,0.3,0.1c0.1,0,0.1,0,0.2,0s0.1,0,0.2,0c0.1,0,0.3,0.1,0.4,0.1c0,0,0.1,0,0.2,0.1
						c0.1,0,0.2,0.1,0.2,0.1c0,0,0.1,0,0.1,0.1c0,0,0,0,0.1,0c0,0,0.1,0.1,0.1,0.1c0.1,0,0.1,0.1,0.2,0.1c0,0,0.1,0.1,0.1,0.1
						c0.4,0.3,0.6,0.7,0.7,1c0.1,0.3,0,0.6-0.1,1c0,0,0,0.1-0.1,0.1c-0.1,0.1-0.1,0.2-0.2,0.3c0,0-0.1,0.1-0.1,0.1c0,0,0,0,0,0
						c0,0-0.1,0.1-0.2,0.1c-0.6,0.5-1.7,0.9-2.9,1c-0.6,0-1.1,0-1.7-0.1c-0.2,0-0.4-0.1-0.6-0.1c-0.1,0-0.1,0-0.2-0.1
						c-0.2,0-0.3-0.1-0.5-0.2c-0.1-0.1-0.3-0.1-0.4-0.2c0,0,0,0-0.1,0c0,0-0.1-0.1-0.1-0.1c0,0-0.1-0.1-0.1-0.1
						c-0.1-0.1-0.2-0.1-0.2-0.2C343.6,378.4,343.6,378.4,343.5,378.3C343.5,378.4,343.5,378.4,343.5,378.3z"/>
				</g>
			</g>
		</g>
		<g>
			
				<linearGradient id="SVGID_6_" gradientUnits="userSpaceOnUse" x1="182.2711" y1="248.9681" x2="62.2712" y2="260.3015" gradientTransform="matrix(1 0 0 -1 0 500)">
				<stop  offset="0" style="stop-color:#B6B9FE"/>
				<stop  offset="0.9996" style="stop-color:#5861D6"/>
			</linearGradient>
			<path class="st9" d="M188.4,235.2c0-3.7-1.8-7.3-5.4-9.4l-43.8-25.3c-3.4-1.9-7.5-1.9-10.9,0l-69.9,40.4
				c-3.6,2.1-5.4,5.8-5.4,9.4c0,0,0,0,0,0.1s0,0,0,0.1s0,0,0,0.1s0,0,0,0.1s0,0,0,0.1s0,0,0,0.1s0,0,0,0.1s0,0,0,0.1s0,0,0,0.1
				s0,0,0,0.1s0,0,0,0.1s0,0,0,0.1s0,0,0,0.1s0,0,0,0.1s0,0,0,0.1s0,0,0,0.1s0,0,0,0.1s0,0,0,0.1s0,0,0,0.1s0,0,0,0.1s0,0,0,0.1
				s0,0,0,0.1s0,0,0,0.1s0,0,0,0.1s0,0,0,0.1s0,0,0,0.1s0,0,0,0.1s0,0,0,0.1s0,0,0,0.1s0,0,0,0.1s0,0,0,0.1s0,0,0,0.1s0,0,0,0.1
				s0,0,0,0.1s0,0,0,0.1s0,0,0,0.1s0,0,0,0.1s0,0,0,0.1s0,0,0,0.1s0,0,0,0.1s0,0,0,0.1s0,0,0,0.1s0,0,0,0.1s0,0,0,0.1s0,0,0,0.1
				s0,0,0,0.1s0,0,0,0.1s0,0,0,0.1s0,0,0,0.1s0,0,0,0.1s0,0,0,0.1s0,0,0,0.1s0,0,0,0.1s0,0,0,0.1s0,0,0,0.1s0,0,0,0.1s0,0,0,0.1
				s0,0,0,0.1s0,0,0,0.1s0,0,0,0.1s0,0,0,0.1s0,0,0,0.1s0,0,0,0.1s0,0,0,0.1s0,0,0,0.1s0,0,0,0.1s0,0,0,0.1s0,0,0,0.1s0,0,0,0.1
				s0,0,0,0.1s0,0,0,0.1s0,0,0,0.1s0,0,0,0.1s0,0,0,0.1s0,0,0,0.1s0,0,0,0.1s0,0,0,0.1s0,0,0,0.1s0,0,0,0.1s0,0,0,0.1s0,0,0,0.1
				s0,0,0,0.1s0,0,0,0.1s0,0,0,0.1s0,0,0,0.1s0,0,0,0.1s0,0,0,0.1s0,0,0,0.1s0,0,0,0.1s0,0,0,0.1s0,0,0,0.1s0,0,0,0.1s0,0,0,0.1
				s0,0,0,0.1s0,0,0,0.1s0,0,0,0.1s0,0,0,0.1s0,0,0,0.1s0,0,0,0.1s0,0,0,0.1c0,3.7,1.8,7.3,5.4,9.4l43.8,25.3
				c3.4,1.9,7.5,1.9,10.9,0l69.9-40.3c3.6-2.1,5.4-5.8,5.4-9.4c0,0,0,0,0-0.1s0,0,0-0.1s0,0,0-0.1s0,0,0-0.1s0,0,0-0.1s0,0,0-0.1
				s0,0,0-0.1s0,0,0-0.1s0,0,0-0.1s0,0,0-0.1s0,0,0-0.1s0,0,0-0.1s0,0,0-0.1s0,0,0-0.1s0,0,0-0.1s0,0,0-0.1s0,0,0-0.1s0,0,0-0.1
				s0,0,0-0.1s0,0,0-0.1s0,0,0-0.1s0,0,0-0.1s0,0,0-0.1s0,0,0-0.1s0,0,0-0.1s0,0,0-0.1s0,0,0-0.1s0,0,0-0.1s0,0,0-0.1s0,0,0-0.1
				s0,0,0-0.1s0,0,0-0.1s0,0,0-0.1s0,0,0-0.1s0,0,0-0.1s0,0,0-0.1s0,0,0-0.1s0,0,0-0.1s0,0,0-0.1s0,0,0-0.1s0,0,0-0.1s0,0,0-0.1
				s0,0,0-0.1s0,0,0-0.1s0,0,0-0.1s0,0,0-0.1s0,0,0-0.1s0,0,0-0.1s0,0,0-0.1s0,0,0-0.1s0,0,0-0.1s0,0,0-0.1s0,0,0-0.1s0,0,0-0.1
				s0,0,0-0.1s0,0,0-0.1s0,0,0-0.1s0,0,0-0.1s0,0,0-0.1s0,0,0-0.1s0,0,0-0.1s0,0,0-0.1s0,0,0-0.1s0,0,0-0.1s0,0,0-0.1s0,0,0-0.1
				s0,0,0-0.1s0,0,0-0.1s0,0,0-0.1s0,0,0-0.1s0,0,0-0.1s0,0,0-0.1s0,0,0-0.1s0,0,0-0.1s0,0,0-0.1s0,0,0-0.1s0,0,0-0.1s0,0,0-0.1
				s0,0,0-0.1s0,0,0-0.1s0,0,0-0.1s0,0,0-0.1s0,0,0-0.1s0,0,0-0.1s0,0,0-0.1s0,0,0-0.1s0,0,0-0.1s0,0,0-0.1s0,0,0-0.1s0,0,0-0.1
				s0,0,0-0.1s0,0,0-0.1s0,0,0-0.1s0,0,0-0.1s0,0,0-0.1s0,0,0-0.1s0,0,0-0.1s0,0,0-0.1S188.4,235.3,188.4,235.2
				C188.4,235.2,188.4,235.2,188.4,235.2z"/>
			<g>
				
					<linearGradient id="SVGID_7_" gradientUnits="userSpaceOnUse" x1="186.2045" y1="269.1397" x2="-3.4555" y2="234.8573" gradientTransform="matrix(1 0 0 -1 0 500)">
					<stop  offset="0" style="stop-color:#E8E9FF"/>
					<stop  offset="0.9996" style="stop-color:#C0C0F6"/>
				</linearGradient>
				<path class="st10" d="M102.3,284.9l-43.8-25.3c-7.2-4.2-7.2-14.6,0-18.8l69.9-40.3c3.4-1.9,7.5-1.9,10.9,0l43.8,25.3
					c7.2,4.2,7.2,14.6,0,18.8l-69.9,40.3C109.8,286.9,105.6,286.9,102.3,284.9z"/>
			</g>
			<g>
				<g>
					<path class="st4" d="M101.2,271.9c-0.5,0.1-1,0.1-1.6,0.1c-1.5,0-2.9-0.3-3.9-0.9l-28.4-16.4c-1.8-1-2-2.6-0.4-3.5l68.1-39.3
						c0.8-0.4,1.9-0.7,3.2-0.7c1.5,0,2.9,0.3,3.9,0.9l28.4,16.4c1.8,1,2,2.6,0.4,3.5l-68.1,39.3
						C102.4,271.6,101.8,271.8,101.2,271.9z M137.5,211.9c-0.4,0.1-0.7,0.2-0.9,0.3l-68.1,39.3c-1.2,0.7-1.1,2,0.4,2.9l28.4,16.4
						c0.7,0.4,1.5,0.6,2.3,0.6c0.7,0,1.3-0.2,1.6-0.4l68.1-39.3c1.2-0.7,1.1-2-0.4-2.9l-28.4-16.4c-0.7-0.4-1.5-0.6-2.3-0.6
						C137.9,211.9,137.7,211.9,137.5,211.9z"/>
					
						<linearGradient id="SVGID_8_" gradientUnits="userSpaceOnUse" x1="114.3429" y1="250.75" x2="149.8171" y2="250.75" gradientTransform="matrix(1 0 0 -1 0 500)">
						<stop  offset="3.533300e-04" style="stop-color:#3A55CA"/>
						<stop  offset="1" style="stop-color:#2D2463"/>
					</linearGradient>
					<path class="st11" d="M149.5,240.3l-32.9,19c-0.5,0.3-1.3,0.2-1.8-0.1l0,0c-0.5-0.3-0.6-0.8-0.1-1.1l32.9-19
						c0.5-0.3,1.3-0.2,1.8,0.1l0,0C149.9,239.6,150,240.1,149.5,240.3z"/>
					<g>
						<g>
							<polygon class="st4" points="114.2,250.5 96.6,249.4 96.7,248.8 113.2,249.8 113.7,236.4 130.5,234.6 131.2,224.1 
								132.2,224.1 131.5,235.1 114.7,236.9 							"/>
							<g>
								<polygon class="st4" points="135.4,224.8 131.9,221 127.9,224.7 								"/>
							</g>
						</g>
						<path class="st12" d="M99.1,247.7c1.3,0.8,1.3,2,0,2.8s-3.5,0.8-4.9,0c-1.3-0.8-1.3-2,0-2.8C95.6,246.9,97.7,246.9,99.1,247.7
							z"/>
						<path class="st13" d="M116.1,248.8c1.3,0.8,1.3,2,0,2.8s-3.5,0.8-4.9,0c-1.3-0.8-1.3-2,0-2.8C112.6,248,114.7,248,116.1,248.8
							z"/>
						<path class="st14" d="M116.7,235.3c1.3,0.8,1.3,2,0,2.8s-3.5,0.8-4.9,0c-1.3-0.8-1.3-2,0-2.8
							C113.1,234.5,115.3,234.5,116.7,235.3z"/>
						<path class="st15" d="M133.4,233.4c1.3,0.8,1.3,2,0,2.8s-3.5,0.8-4.9,0c-1.3-0.8-1.3-2,0-2.8
							C129.9,232.7,132.1,232.7,133.4,233.4z"/>
					</g>
					<g>
						<polygon class="st15" points="107.2,258.4 95.7,265 89,261.1 100.5,254.5 						"/>
						<polygon class="st14" points="159.3,228.2 147.8,234.9 141.1,231 152.6,224.4 						"/>
					</g>
				</g>
			</g>
		</g>
		<g>
			<g>
				
					<linearGradient id="SVGID_9_" gradientUnits="userSpaceOnUse" x1="423.6062" y1="258.0457" x2="137.6675" y2="191.1843" gradientTransform="matrix(1 0 0 -1 0 500)">
					<stop  offset="0" style="stop-color:#E8E9FF"/>
					<stop  offset="0.9996" style="stop-color:#C0C0F6"/>
				</linearGradient>
				<path class="st16" d="M429.5,255.7L252.4,357.9c-1.9,1.1-4.2,1.1-6.1,0l-97.4-56.2c-4.1-2.4-4.1-8.2,0-10.6L326,188.9
					c1.9-1.1,4.2-1.1,6.1,0l97.4,56.2C433.5,247.4,433.5,253.3,429.5,255.7z"/>
				
					<linearGradient id="SVGID_10_" gradientUnits="userSpaceOnUse" x1="291.49" y1="122.989" x2="291.49" y2="295.7842" gradientTransform="matrix(1 0 0 -1 0 500)">
					<stop  offset="2.030000e-02" style="stop-color:#FFFFFF"/>
					<stop  offset="0.9583" style="stop-color:#FFFFFF;stop-opacity:0"/>
				</linearGradient>
				<path class="st17" d="M326,188.9l-65.1,37.6V353l92.2-53.3V201l-21.1-12.2C330.2,187.8,327.9,187.8,326,188.9z M193.8,327.6
					l48.6,28V237.1l-48.6,28V327.6z M372,211.9v77l17.2-9.9v-57.1L372,211.9z"/>
				
					<linearGradient id="SVGID_11_" gradientUnits="userSpaceOnUse" x1="554.1142" y1="250.1455" x2="164.8424" y2="163.8489" gradientTransform="matrix(1 0 0 -1 0 500)">
					<stop  offset="0" style="stop-color:#B6B9FE"/>
					<stop  offset="0.9996" style="stop-color:#5861D6"/>
				</linearGradient>
				<path class="st18" d="M148.2,291.3l0.6-0.1c-3.9,2.4-3.9,8.1,0.1,10.5l97.4,56.2c1.9,1.1,4.2,1.1,6.1,0l177.1-102.2
					c3.9-2.3,4-7.8,0.4-10.3l0.3-0.1c2.4,1.4,3.8,3.8,3.8,6.5v4.2c0,2.7-1.4,5.1-3.8,6.5L253.1,364.8c-1.1,0.7-2.4,1-3.8,1
					c-1.3,0-2.6-0.4-3.8-1l-97.4-56.2c-2.4-1.4-3.8-3.8-3.8-6.5v-4.2C144.4,295.1,145.9,292.7,148.2,291.3z"/>
				<g>
					
						<linearGradient id="SVGID_12_" gradientUnits="userSpaceOnUse" x1="340.9945" y1="74.4988" x2="-14.506" y2="345.499" gradientTransform="matrix(1 0 0 -1 0 500)">
						<stop  offset="0" style="stop-color:#B6B9FE"/>
						<stop  offset="0.9996" style="stop-color:#5861D6"/>
					</linearGradient>
					<path class="st19" d="M148.9,291.1l10.6-6.1l0.5,0.2l109.2,63l0,0l-16.9,9.7c-1.9,1.1-4.2,1.1-6.1,0l-97.4-56.2
						C144.8,299.3,144.8,293.5,148.9,291.1z"/>
					
						<linearGradient id="SVGID_13_" gradientUnits="userSpaceOnUse" x1="449.6627" y1="217.0504" x2="94.1622" y2="488.0506" gradientTransform="matrix(1 0 0 -1 0 500)">
						<stop  offset="0" style="stop-color:#B6B9FE"/>
						<stop  offset="0.9996" style="stop-color:#5861D6"/>
					</linearGradient>
					<path class="st20" d="M309.3,198.5l16.7-9.6c1.9-1.1,4.2-1.1,6.1,0l97.4,56.2c4.1,2.4,4.1,8.2,0,10.6l-10.8,6.2l0,0
						L309.3,198.5z"/>
				</g>
				
					<linearGradient id="SVGID_14_" gradientUnits="userSpaceOnUse" x1="359.1405" y1="278.655" x2="382.697" y2="278.655" gradientTransform="matrix(1 0 0 -1 0 500)">
					<stop  offset="3.533300e-04" style="stop-color:#3A55CA"/>
					<stop  offset="1" style="stop-color:#2D2463"/>
				</linearGradient>
				<path class="st21" d="M359.6,216.4l19.9,11.5c0.7,0.4,1.8,0.3,2.6-0.1l0,0c0.8-0.4,0.8-1.1,0.2-1.5l-19.9-11.5
					c-0.7-0.4-1.8-0.3-2.6,0.1l0,0C359,215.3,358.9,216,359.6,216.4z"/>
				
					<linearGradient id="SVGID_15_" gradientUnits="userSpaceOnUse" x1="223.1062" y1="171.4726" x2="169.1062" y2="190.1393" gradientTransform="matrix(1 0 0 -1 0 500)">
					<stop  offset="3.533300e-04" style="stop-color:#3A55CA"/>
					<stop  offset="1" style="stop-color:#2D2463"/>
				</linearGradient>
				<path class="st22" d="M190.4,319.4l17.5,10.1c2.2,1.3,6,1.1,8.6-0.4l0,0c2.5-1.5,2.8-3.7,0.6-4.9l-17.5-10.1
					c-2.2-1.3-6-1.1-8.6,0.4l0,0C188.5,316,188.2,318.2,190.4,319.4z"/>
				<path class="st4" d="M231.4,353c0-1.3-0.9-2.9-2-3.5c-1.1-0.6-2-0.1-2,1.2s0.9,2.9,2,3.5C230.5,354.8,231.4,354.2,231.4,353z"/>
				<path class="st4" d="M191.4,331.6l11.6,6.7c0.4,0.2,0.8,0,0.8-0.6l0,0c0-0.6-0.4-1.2-0.8-1.5l-11.6-6.7c-0.4-0.2-0.8,0-0.8,0.6
					l0,0C190.6,330.7,190.9,331.4,191.4,331.6z"/>
				
					<linearGradient id="SVGID_16_" gradientUnits="userSpaceOnUse" x1="533.9563" y1="323.1653" x2="127.9553" y2="208.1653" gradientTransform="matrix(1 0 0 -1 0 500)">
					<stop  offset="0" style="stop-color:#FFFFFF"/>
					<stop  offset="0.9996" style="stop-color:#FFFFFF;stop-opacity:0"/>
				</linearGradient>
				<path class="st23" d="M429.5,249.9l-97.4-56.2c-1.9-1.1-4.2-1.1-6.1,0L148.9,295.9c-1.2,0.7-2.1,1.7-2.6,2.9
					c-1.1-2.7-0.3-6,2.6-7.7L326,188.9c1.9-1.1,4.2-1.1,6.1,0l97.4,56.2c2.9,1.6,3.7,5,2.6,7.7C431.5,251.6,430.7,250.6,429.5,249.9
					z"/>
				<path class="st24" d="M339.1,202c1.2-0.7,1.2-1.8,0-2.4s-3.1-0.7-4.2,0s-1.2,1.8,0,2.4S338,202.7,339.1,202z"/>
				<g>
					
						<linearGradient id="SVGID_17_" gradientUnits="userSpaceOnUse" x1="388.6054" y1="273.0198" x2="326.8553" y2="295.8949" gradientTransform="matrix(1 0 0 -1 0 500)">
						<stop  offset="0" style="stop-color:#FFFFFF"/>
						<stop  offset="0.9996" style="stop-color:#FFFFFF;stop-opacity:0"/>
					</linearGradient>
					<path class="st25" d="M359.8,214.9c0.8-0.4,1.9-0.5,2.6-0.1l19.9,11.5c0.4,0.2,0.5,0.6,0.4,0.9c-0.1-0.1-0.2-0.3-0.4-0.4
						l-19.9-11.5c-0.7-0.4-1.8-0.3-2.6,0.1c-0.3,0.2-0.5,0.4-0.5,0.5C359,215.7,359.2,215.2,359.8,214.9z"/>
					
						<linearGradient id="SVGID_18_" gradientUnits="userSpaceOnUse" x1="336.2216" y1="131.6127" x2="274.4716" y2="154.4877" gradientTransform="matrix(1 0 0 -1 0 500)">
						<stop  offset="0" style="stop-color:#FFFFFF"/>
						<stop  offset="0.9996" style="stop-color:#FFFFFF;stop-opacity:0"/>
					</linearGradient>
					<path class="st26" d="M217.1,324.8l-17.5-10.1c-2.2-1.3-6-1.1-8.6,0.4c-1.2,0.7-1.9,1.6-2.1,2.5c-0.1-1,0.6-2.2,2.1-3.1
						c2.5-1.5,6.4-1.6,8.6-0.4l17.5,10.1c1.1,0.6,1.6,1.5,1.4,2.4C218.5,326,218,325.3,217.1,324.8z"/>
					
						<linearGradient id="SVGID_19_" gradientUnits="userSpaceOnUse" x1="391.0191" y1="279.5354" x2="329.2691" y2="302.4103" gradientTransform="matrix(1 0 0 -1 0 500)">
						<stop  offset="0" style="stop-color:#FFFFFF"/>
						<stop  offset="0.9996" style="stop-color:#FFFFFF;stop-opacity:0"/>
					</linearGradient>
					<path class="st27" d="M334.9,199.6c1.2-0.7,3.1-0.7,4.2,0c0.7,0.4,1,1,0.8,1.5c-0.1-0.3-0.4-0.7-0.8-0.9
						c-1.2-0.7-3.1-0.7-4.2,0c-0.5,0.3-0.7,0.6-0.8,0.9C334,200.6,334.2,200,334.9,199.6z"/>
				</g>
				
					<linearGradient id="SVGID_20_" gradientUnits="userSpaceOnUse" x1="179.7771" y1="356.239" x2="493.5381" y2="238.7799" gradientTransform="matrix(-1 0 0 -1 756.6116 500)">
					<stop  offset="3.337000e-04" style="stop-color:#FFFFFF"/>
					<stop  offset="0.9661" style="stop-color:#FFFFFF;stop-opacity:0"/>
				</linearGradient>
				<path class="st28" d="M146.1,294.7c0.4-1.4,1.3-2.7,2.8-3.5L326,188.9c1.9-1.1,4.2-1.1,6.1,0l97.4,56.2c0.9,0.5,1.6,1.2,2.1,2
					L146.1,294.7z"/>
				
					<linearGradient id="SVGID_21_" gradientUnits="userSpaceOnUse" x1="252.6678" y1="194.0334" x2="204.1777" y2="225.3286" gradientTransform="matrix(1 0 0 -1 0 500)">
					<stop  offset="2.030000e-02" style="stop-color:#5861D6"/>
					<stop  offset="0.9583" style="stop-color:#FFFFFF;stop-opacity:0"/>
				</linearGradient>
				<polygon class="st29" points="269.5,292.7 233,313.7 179.4,282.8 215.9,261.8 				"/>
			</g>
			<g>
				<g>
					<g>
						<path class="st15" d="M370.6,162.3l-26.9,15.5c-2,1.1-5.4,1-7.7-0.3l-25.8-14.9c-2.3-1.3-2.5-3.3-0.5-4.4l26.9-15.5
							c2-1.1,5.4-1,7.7,0.3l25.8,14.9C372.4,159.2,372.6,161.2,370.6,162.3z"/>
						<g>
							<path class="st30" d="M371.9,259v-98.3l0,0l0,0c-0.1,0.6-0.5,1.1-1.3,1.6l-26.9,15.5c-0.9,0.5-2.2,0.8-3.6,0.8v99
								c1.3,0,2.6-0.2,3.6-0.8l26.9-15.5C371.7,260.7,372.1,259.8,371.9,259z"/>
							<path class="st31" d="M336.1,177.5l-25.8-14.9c-1.1-0.6-1.7-1.4-1.8-2.2v98.3c-0.2,1,0.4,2,1.8,2.9l25.8,14.9
								c1.2,0.7,2.7,1,4.1,1.1v-99C338.7,178.6,337.2,178.2,336.1,177.5z"/>
						</g>
					</g>
					<g>
						<path class="st14" d="M328.2,220.9l-26.9,15.5c-2,1.1-5.4,1-7.7-0.3l-25.8-14.9c-2.3-1.3-2.5-3.3-0.5-4.4l26.9-15.5
							c2-1.1,5.4-1,7.7,0.3l25.8,14.9C329.9,217.7,330.2,219.7,328.2,220.9z"/>
						<g>
							<path class="st32" d="M329.5,283.4v-64.1l0,0l0,0c-0.1,0.6-0.5,1.1-1.3,1.6l-26.9,15.5c-0.9,0.5-2.2,0.8-3.6,0.8V302
								c1.3,0,2.6-0.2,3.6-0.8l26.9-15.5C329.2,285.1,329.7,284.3,329.5,283.4z"/>
							<path class="st33" d="M293.6,236.1l-25.8-14.9c-1.1-0.6-1.7-1.4-1.8-2.2v64.1c-0.2,1,0.4,2,1.8,2.9l25.8,14.9
								c1.2,0.7,2.7,1,4.1,1.1v-64.8C296.3,237.1,294.8,236.8,293.6,236.1z"/>
						</g>
					</g>
					<g>
						<path class="st13" d="M286.7,269.5L259.8,285c-2,1.1-5.4,1-7.7-0.3l-25.8-14.9c-2.3-1.3-2.5-3.3-0.6-4.4l26.9-15.5
							c2-1.1,5.4-1,7.7,0.3l25.8,14.9C288.4,266.3,288.7,268.3,286.7,269.5z"/>
						<g>
							<path class="st34" d="M288,307.4v-39.5l0,0l0,0c-0.1,0.6-0.5,1.1-1.3,1.6L259.8,285c-0.9,0.5-2.2,0.8-3.6,0.8v40.2
								c1.3,0,2.6-0.2,3.6-0.8l26.9-15.5C287.8,309.1,288.2,308.2,288,307.4z"/>
							<path class="st35" d="M252.1,284.7l-25.8-14.9c-1.1-0.6-1.7-1.4-1.8-2.2v39.5c-0.2,1,0.4,2,1.8,2.9l25.8,14.9
								c1.2,0.7,2.7,1,4.1,1.1v-40.2C254.8,285.7,253.3,285.4,252.1,284.7z"/>
						</g>
					</g>
				</g>
				<g>
					<g>
						
							<linearGradient id="SVGID_22_" gradientUnits="userSpaceOnUse" x1="345.8231" y1="339.0475" x2="328.072" y2="329.2663" gradientTransform="matrix(1 0 0 -1 0 500)">
							<stop  offset="2.030000e-02" style="stop-color:#5861D6"/>
							<stop  offset="0.9583" style="stop-color:#FFFFFF;stop-opacity:0"/>
						</linearGradient>
						<polygon class="st36" points="337.4,161 345.3,165.5 330.6,174 322.7,169.4 						"/>
						
							<linearGradient id="SVGID_23_" gradientUnits="userSpaceOnUse" x1="249.6036" y1="231.1555" x2="266.2702" y2="242.4888" gradientTransform="matrix(1 0 0 -1 0 500)">
							<stop  offset="2.030000e-02" style="stop-color:#5861D6"/>
							<stop  offset="0.9583" style="stop-color:#FFFFFF;stop-opacity:0"/>
						</linearGradient>
						<polygon class="st37" points="259.8,257.7 267.6,262.3 253,270.7 245.1,266.2 						"/>
						
							<linearGradient id="SVGID_24_" gradientUnits="userSpaceOnUse" x1="292.8409" y1="269.512" x2="309.5075" y2="280.8453" gradientTransform="matrix(1 0 0 -1 0 500)">
							<stop  offset="2.030000e-02" style="stop-color:#5861D6"/>
							<stop  offset="0.9583" style="stop-color:#FFFFFF;stop-opacity:0"/>
						</linearGradient>
						<polygon class="st38" points="303,219.4 310.9,223.9 296.2,232.4 288.4,227.9 						"/>
					</g>
					
						<linearGradient id="SVGID_25_" gradientUnits="userSpaceOnUse" x1="380.1324" y1="443.2184" x2="246.614" y2="216.3101" gradientTransform="matrix(1 0 0 -1 0 500)">
						<stop  offset="0" style="stop-color:#E8E9FF"/>
						<stop  offset="0.9996" style="stop-color:#C0C0F6"/>
					</linearGradient>
					<path class="st39" d="M383.5,81.5l-0.4-26.7l-20,25.3l6.4,0.4l-23,61l-15-34.5l-35.9,105.3l-20.1-27.7l-3.6,10
						c-0.1,0.2-6.9,19.4-13.7,38.5c-14.3,40.1-13.7,40.3-14.1,42.3c0,0,8.5-3.9,8.4-3.8c0.9-3.4,13.7-39.4,23.5-66.7l20.3,28
						l34.4-100.9l14.5,33.4l31.8-84.4L383.5,81.5z"/>
					<g>
						
							<linearGradient id="SVGID_26_" gradientUnits="userSpaceOnUse" x1="373.2812" y1="447.8104" x2="225.9004" y2="226.0097" gradientTransform="matrix(1 0 0 -1 0 500)">
							<stop  offset="0" style="stop-color:#B6B9FE"/>
							<stop  offset="0.9996" style="stop-color:#5861D6"/>
						</linearGradient>
						<path class="st40" d="M272.1,194.8l3.6-10l-7.1-4l-3.6,10c-0.1,0.2-6.9,19.4-13.7,38.5c-14.3,40.1-13.7,40.3-14.1,42.3l7.1,4
							c0.4-2-0.1-2.1,14.1-42.3C265.1,214.1,272,194.9,272.1,194.8z"/>
						
							<linearGradient id="SVGID_27_" gradientUnits="userSpaceOnUse" x1="382.8351" y1="441.4616" x2="235.4545" y2="219.6612" gradientTransform="matrix(1 0 0 -1 0 500)">
							<stop  offset="0" style="stop-color:#B6B9FE"/>
							<stop  offset="0.9996" style="stop-color:#5861D6"/>
						</linearGradient>
						<polygon class="st41" points="369.6,80.6 363.2,80.2 383.2,54.9 376,50.9 356.1,76.2 361.5,79.2 342,130.9 331.6,107.1 
							346.6,141.6 						"/>
						
							<linearGradient id="SVGID_28_" gradientUnits="userSpaceOnUse" x1="378.1225" y1="444.5929" x2="230.7418" y2="222.7924" gradientTransform="matrix(1 0 0 -1 0 500)">
							<stop  offset="0" style="stop-color:#B6B9FE"/>
							<stop  offset="0.9996" style="stop-color:#5861D6"/>
						</linearGradient>
						<polygon class="st42" points="331.6,107.1 324.5,103.1 290,204.4 275.7,184.7 295.7,212.4 						"/>
						
							<linearGradient id="SVGID_29_" gradientUnits="userSpaceOnUse" x1="389.8328" y1="436.8117" x2="242.4521" y2="215.011" gradientTransform="matrix(1 0 0 -1 0 500)">
							<stop  offset="0" style="stop-color:#B6B9FE"/>
							<stop  offset="0.9996" style="stop-color:#5861D6"/>
						</linearGradient>
						<path class="st43" d="M274.7,208.9l14.6,20.1l0,0l7.1,4l-20.3-28C275.3,207.4,274.3,210,274.7,208.9z"/>
						
							<linearGradient id="SVGID_30_" gradientUnits="userSpaceOnUse" x1="393.3862" y1="434.4506" x2="246.005" y2="212.6492" gradientTransform="matrix(1 0 0 -1 0 500)">
							<stop  offset="0" style="stop-color:#B6B9FE"/>
							<stop  offset="0.9996" style="stop-color:#5861D6"/>
						</linearGradient>
						<polygon class="st44" points="328.4,139.1 338.2,161.5 345.3,165.5 330.8,132.1 						"/>
					</g>
				</g>
			</g>
		</g>
		<g>
			<g>
				<g>
					
						<linearGradient id="SVGID_31_" gradientUnits="userSpaceOnUse" x1="254.8852" y1="102.8145" x2="60.5255" y2="124.5065" gradientTransform="matrix(1 0 0 -1 0 500)">
						<stop  offset="0" style="stop-color:#B6B9FE"/>
						<stop  offset="0.9996" style="stop-color:#5861D6"/>
					</linearGradient>
					<path class="st45" d="M221.4,409.2c-14.7,8.5-36.8,9.4-49.6,2l-107.5-62c-5.5-3.2-8.3-7.4-8.5-11.9l0,0v10.9c0,0.1,0,0.2,0,0.3
						c0.1,4.6,2.9,8.9,8.5,12.1l107.5,62c12.7,7.3,34.9,6.4,49.6-2c8.3-4.8,12.4-11,12.1-16.7v-11.1
						C233.6,398.5,229.5,404.5,221.4,409.2z"/>
				</g>
			</g>
			<g>
				
					<linearGradient id="SVGID_32_" gradientUnits="userSpaceOnUse" x1="227.4691" y1="107.7451" x2="35.7113" y2="171.0861" gradientTransform="matrix(1 0 0 -1 0 500)">
					<stop  offset="0" style="stop-color:#E8E9FF"/>
					<stop  offset="0.9996" style="stop-color:#C0C0F6"/>
				</linearGradient>
				<path class="st46" d="M171.8,411.3L64.4,349.2c-12.7-7.3-11.1-20.1,3.6-28.6l0,0c14.7-8.5,36.8-9.4,49.5-2l107.5,62
					c12.7,7.3,11.1,20.1-3.6,28.6l0,0C206.7,417.7,184.5,418.6,171.8,411.3z"/>
			</g>
			<g>
				<g>
					<path class="st13" d="M188.1,383.6l-17.4,12.8c11.2,5,27.2,4.5,37.3-1.3c4.2-2.4,7-5.6,7.9-9L188.1,383.6z"/>
					<path class="st14" d="M188.1,383.6l-3.4-16.1c-6.2,0.4-12,2.1-16.5,4.6c-10.9,6.3-10.9,16.7,0,23c0.8,0.5,1.7,0.9,2.6,1.3
						L188.1,383.6z"/>
					<path class="st15" d="M188.1,383.6l27.8,2.5c1.4-5.1-1.6-10.4-7.9-14c-6.1-3.5-14.8-5.2-23.4-4.6L188.1,383.6z"/>
					<path class="st34" d="M208,395.1c4.2-2.4,7-5.6,7.9-9v9.1c-0.9,3.4-3.7,6.5-7.9,9c-10,5.8-26.1,6.4-37.3,1.3v-9.1
						C181.9,401.5,197.9,400.9,208,395.1z"/>
					<path class="st33" d="M168.1,395.1c0.8,0.5,1.7,0.9,2.6,1.3v9.1c-0.9-0.4-1.8-0.8-2.6-1.3c-5.5-3.2-8.2-7.4-8.2-11.6v-8.9
						c0,0,0-0.1,0-0.1C160,387.9,162.7,392,168.1,395.1z"/>
				</g>
				<g>
					
						<linearGradient id="SVGID_33_" gradientUnits="userSpaceOnUse" x1="163.8857" y1="130.3863" x2="101.3855" y2="158.3864" gradientTransform="matrix(1 0 0 -1 0 500)">
						<stop  offset="3.533300e-04" style="stop-color:#3A55CA"/>
						<stop  offset="1" style="stop-color:#2D2463"/>
					</linearGradient>
					<path class="st47" d="M124.6,341.5l35.5,20.5c2.9,1.7,2.6,4.6-0.8,6.6l-3.8,2.2c-3.4,1.9-8.5,2.2-11.4,0.5l-35.5-20.5
						c-2.9-1.7-2.6-4.6,0.8-6.6l3.8-2.2C116.5,340,121.6,339.8,124.6,341.5z"/>
				</g>
				<g>
					<polygon class="st15" points="87.1,342 91.8,344.7 116.5,330.4 111.8,327.7 					"/>
					<polygon class="st14" points="78.9,337.2 83.5,339.9 98.7,331.1 94.1,328.5 					"/>
					<polygon class="st13" points="70.6,332.5 75.3,335.1 95.4,323.5 90.7,320.9 					"/>
				</g>
			</g>
		</g>
		<g>
			<g>
				<g class="st3">
					<g>
						<g>
							
								<linearGradient id="SVGID_34_" gradientUnits="userSpaceOnUse" x1="254.7484" y1="334.5373" x2="122.5445" y2="378.2455" gradientTransform="matrix(1 0 0 -1 0 500)">
								<stop  offset="2.070000e-02" style="stop-color:#C0C0F6"/>
								<stop  offset="0.9583" style="stop-color:#000000;stop-opacity:0"/>
							</linearGradient>
							<path class="st48" d="M172.4,112.9l26.6,38l-26.1,12.9c-0.4-1-0.6-2-0.6-2.9L172.4,112.9z"/>
						</g>
						<g>
							
								<linearGradient id="SVGID_35_" gradientUnits="userSpaceOnUse" x1="246.7972" y1="310.4875" x2="114.5938" y2="354.1955" gradientTransform="matrix(1 0 0 -1 0 500)">
								<stop  offset="2.070000e-02" style="stop-color:#C0C0F6"/>
								<stop  offset="0.9583" style="stop-color:#000000;stop-opacity:0"/>
							</linearGradient>
							<path class="st49" d="M201.6,154.5l10.5,15l10.4-2.8l26.2,43.4c-0.7,0-1.4-0.3-2.3-0.8l-68.7-39.6c-0.9-0.5-1.7-1.2-2.5-2.1
								L201.6,154.5z"/>
						</g>
						<g>
							
								<linearGradient id="SVGID_36_" gradientUnits="userSpaceOnUse" x1="248.9174" y1="316.9005" x2="116.7136" y2="360.6086" gradientTransform="matrix(1 0 0 -1 0 500)">
								<stop  offset="2.070000e-02" style="stop-color:#C0C0F6"/>
								<stop  offset="0.9583" style="stop-color:#000000;stop-opacity:0"/>
							</linearGradient>
							<path class="st50" d="M251.9,158.8l-0.1,48c0,1-0.3,1.8-0.7,2.3L225,166L251.9,158.8z"/>
						</g>
						<g>
							
								<linearGradient id="SVGID_37_" gradientUnits="userSpaceOnUse" x1="257.0053" y1="341.3636" x2="124.8014" y2="385.0718" gradientTransform="matrix(1 0 0 -1 0 500)">
								<stop  offset="2.070000e-02" style="stop-color:#C0C0F6"/>
								<stop  offset="0.9583" style="stop-color:#000000;stop-opacity:0"/>
							</linearGradient>
							<path class="st51" d="M251.8,155.1l-37.6,10.2c-0.6,0.2-1.3,0-2.1-0.4c-0.7-0.4-1.5-1.1-2.1-1.9l-37.4-53.5L251.8,155.1z"/>
						</g>
					</g>
				</g>
			</g>
			
				<linearGradient id="SVGID_38_" gradientUnits="userSpaceOnUse" x1="230.7622" y1="281.8179" x2="152.278" y2="319.078" gradientTransform="matrix(1 0 0 -1 0 500)">
				<stop  offset="2.070000e-02" style="stop-color:#C0C0F6"/>
				<stop  offset="0.9583" style="stop-color:#000000;stop-opacity:0"/>
			</linearGradient>
			<polygon class="st52" points="221.3,221.9 233.1,220.9 221.3,206.1 221.3,210 176.8,184.3 176.8,192.3 221.3,218 			"/>
		</g>
	</g>
</g>
<g id="DESIGNED_BY_FREEPIK">
</g>
</svg>
