<?xml version="1.0" encoding="utf-8"?>
<!-- Generator: Adobe Illustrator 24.3.0, SVG Export Plug-In . SVG Version: 6.00 Build 0)  -->
<svg version="1.1" id="Layer_1" xmlns="http://www.w3.org/2000/svg" xmlns:xlink="http://www.w3.org/1999/xlink" x="0px" y="0px"
	 viewBox="0 0 479 356.4" style="enable-background:new 0 0 479 356.4;" xml:space="preserve">
<style type="text/css">
	.st0{fill:#50BFA5;}
	.st1{fill:#3C8F7C;}
	.st2{fill:#355389;}
	.st3{fill:#466EB6;}
	.st4{fill:#F7CC7F;}
	.st5{fill:#FAE0B2;}
	.st6{fill:#96D9C9;}
	.st7{fill:#F48C7F;}
	.st8{fill:#B75742;}
	.st9{fill:#86B1F2;}
	.st10{fill:#F47458;}
	.st11{fill:#184655;}
	.st12{fill:#F7A491;}
	.st13{fill:#13375B;}
	.st14{fill:#FFFFFF;}
	.st15{fill:#9BC1F9;}
</style>
<g>
	<polygon class="st0" points="183.6,72.7 179.9,73.8 177.5,68.1 171.9,69.1 169.4,65.2 167.4,66.4 170.8,71.7 176,70.8 178.6,76.7 
		184.1,75 	"/>
	<polygon class="st0" points="418.1,277.2 414.5,278.3 412,272.6 406.5,273.6 403.9,269.6 401.9,270.9 405.3,276.2 410.6,275.3 
		413.1,281.2 418.6,279.5 	"/>
	<g>
		<g>
			<path class="st0" d="M161,344.5c0,0-19.5-66.1-21.1-80.7c-1.6-14.6,9.3-10.1,9.3-10.1s-9.2-27.8-2.5-34.4
				c6.6-6.6,12.6,5.7,12.6,5.7s2-33.8,9.1-33.8c13.2,0,12.9,36.8,12.9,36.8s3.4-14.4,10.4-10.5c10.6,6-4.6,34.9-4.6,34.9
				s13.6,0,18.3,6.8C214.1,271.5,161,344.5,161,344.5z"/>
		</g>
	</g>
	<g>
		<g>
			<path class="st0" d="M167.4,335.7c0,0-56.3-9.4-68.5-19.4c-12.2-10-0.1-14.5-0.1-14.5s-28.3-14.5-27.9-24.3
				c0.3-9.9,14.4-4.8,14.4-4.8s-23.8-27.2-18.2-32.3c10.5-9.6,38,18.6,38,18.6s-8.2-13.4,0.4-15.5c13-3.2,22.6,29.9,22.6,29.9
				s-2.4-13.1,6.5-11.3C150.7,265.2,167.4,335.7,167.4,335.7z"/>
		</g>
		<path class="st1" d="M134.6,262c-9-1.6-6.5,11.3-6.5,11.3s-9.6-33.1-22.6-29.9c-8.6,2.1-0.4,15.5-0.4,15.5s-27.5-28.2-38-18.6
			l100.2,95.4C165.5,326.6,149.7,264.7,134.6,262z"/>
	</g>
	<g>
		<path class="st2" d="M183.4,343.5c0,0-29.6-30.1-44.5-33.3c-14.9-3.1-12.2,7.5-12.2,7.5S97,291.8,90.2,298.1
			c-6.9,6.3,0.6,12.3,0.6,12.3s-24.7-4.4-28.2,3.7c-5.4,12.4,35.1,19.2,35.1,19.2s-17,1.2-13.1,9
			C90.6,354.1,183.4,343.5,183.4,343.5z"/>
		<path class="st3" d="M62.6,314.1c3.5-8.1,28.2-3.7,28.2-3.7s-7.4-6.1-0.6-12.3c6.9-6.3,35.5,16.1,35.5,16.1s-6.8-12.9,8.2-9.8
			c14.9,3.1,49.6,39.1,49.6,39.1L62.6,314.1z"/>
	</g>
	<g>
		<path class="st4" d="M230.6,32.7c-10,1.6-12.9,14.7-4.6,20.6c1.5,1.1,2.5,2.6,3,4.4l1.5,6.1c0.4,1.7,2.1,2.8,3.8,2.5l3.8-0.6
			c1.7-0.3,2.9-1.8,2.8-3.5c-0.5-6.3-1.2-8.6,0.9-11.4C247.6,42.5,240.6,31.1,230.6,32.7z"/>
		<g>
			<path class="st5" d="M231.6,59.3c-0.6-5.4-1.6-11.1-1.9-12.7c-5.7,0.3-3.5-5.7-0.9-3.3c0.8,0.7,1.1,1.6,1.3,2.7
				c1.9-0.2,3.8-0.7,5.4-1.6c-0.1-1.3-0.2-2.3,0.1-3.2c0.6-1.3,2.2-1.6,2.8-0.4c0.2,0.5,0.3,1.1,0.1,1.6c-0.4,1.1-1.5,1.8-2.5,2.3
				c0.3,4.3,0.7,8.6,1.2,12.8l-0.5,0.1c-0.5-4.2-0.9-8.4-1.2-12.6c-1.7,0.8-3.5,1.4-5.4,1.5c0.4,2.1,1.3,7.6,1.9,12.7L231.6,59.3z
				 M227,45.4c0.5,0.5,1.4,0.8,2.6,0.7c-0.2-0.9-0.5-1.7-1.2-2.3C227.1,42.5,226.2,44.5,227,45.4z M236.3,41.5
				c-0.3,0.7-0.2,1.6-0.1,2.7c0.8-0.5,1.8-1,2.1-1.9c0.2-0.6,0-1.4-0.6-1.6C237.5,40.7,236.5,41,236.3,41.5z"/>
		</g>
		<path class="st6" d="M228.9,57.6c0,0,0,0.1,0,0.2l1.5,6.1c0.4,1.7,2.1,2.8,3.8,2.5l3.8-0.6c1.7-0.3,2.9-1.8,2.8-3.5
			c-0.2-2.8-0.5-4.8-0.5-6.4L228.9,57.6z"/>
		<g>
			<path class="st5" d="M223.2,28.2l-3-5.4c-0.3-0.5-0.1-1.2,0.4-1.5c0.5-0.3,1.2-0.1,1.5,0.4l3,5.4c0.3,0.5,0.1,1.2-0.4,1.5
				C224.2,28.9,223.5,28.7,223.2,28.2z"/>
		</g>
		<g>
			<path class="st5" d="M216.7,41.3l-6.5-0.6c-0.6-0.1-1-0.6-1-1.2c0.1-0.6,0.6-1,1.2-1l6.5,0.6c0.6,0.1,1,0.6,1,1.2
				C217.8,41,217.3,41.4,216.7,41.3z"/>
		</g>
		<g>
			<path class="st5" d="M210.2,61.3c-0.4-0.4-0.4-1.1,0-1.5c1.6-1.6,3.4-3,5.2-4.3c0.5-0.3,1.2-0.2,1.5,0.3c0.3,0.5,0.2,1.2-0.3,1.5
				c-1.8,1.2-3.4,2.5-4.9,4C211.4,61.7,210.7,61.7,210.2,61.3z"/>
		</g>
		<g>
			<path class="st5" d="M239.3,27.9c-0.6-0.2-0.9-0.8-0.8-1.3c0.7-2.8,1.2-5.6,1.3-8.4c0-0.6,0.5-1.1,1.1-1c0.6,0,1.1,0.5,1,1.1
				c-0.2,3-0.6,6-1.4,8.9C240.4,27.7,239.8,28,239.3,27.9z"/>
		</g>
		<g>
			<path class="st5" d="M246,36.2c-0.2-0.6,0.2-1.2,0.7-1.4l6.8-2c0.6-0.2,1.2,0.2,1.4,0.7c0.2,0.6-0.2,1.2-0.7,1.4l-6.8,2
				C246.7,37.1,246.1,36.8,246,36.2z"/>
		</g>
		<g>
			<path class="st5" d="M257.1,54.2c-0.1,0-0.2,0-0.3,0c-2.3-0.7-4.6-1.6-6.8-2.7c-0.5-0.3-0.7-0.9-0.4-1.5c0.3-0.5,0.9-0.7,1.5-0.5
				c2,1.1,4.1,1.9,6.3,2.5c0.6,0.2,0.9,0.8,0.8,1.3C258,53.9,257.5,54.2,257.1,54.2z"/>
		</g>
	</g>
	<path class="st4" d="M356.1,102.3l-3.4-8.1l-8.6-1.8c-1-0.2-1.3-1.4-0.5-2.1l6.6-5.7l-1-8.7c-0.1-1,1-1.7,1.8-1.2l7.5,4.5l8-3.6
		c0.9-0.4,1.9,0.4,1.7,1.4l-2,8.5l5.9,6.5c0.7,0.7,0.2,1.9-0.8,2l-8.7,0.8l-4.3,7.6C357.7,103.3,356.4,103.2,356.1,102.3z"/>
	<polygon class="st7" points="410.3,74.6 408.9,80.3 399.6,79 396.5,87 389.4,87.2 389.5,90.9 399,90.6 402,83 411.7,84.3 
		413.8,75.8 	"/>
	<path class="st8" d="M327.2,345.2h-164c-6.3,0-11.3-5.3-11.3-11.8v-7c0-6.5,5.1-11.8,11.3-11.8h164l0,0c-7.5,8.5-7.6,21.5-0.3,30.2
		L327.2,345.2z"/>
	<path class="st5" d="M324.7,318.2h-91c-6.3,0-11.3,5.3-11.3,11.8l0,0c0,6.5,5.1,11.8,11.3,11.8h91
		C320.4,334.5,320.4,325.4,324.7,318.2z"/>
	<path class="st9" d="M269.6,293.5c0.2-0.4-0.1-1-0.7-1h-86.8c-6.8,0-12.3,5-12.3,11.1l0,0c0,6.1,5.5,11.1,12.3,11.1h86.8
		c0.6,0,0.9-0.5,0.7-1l0,0C266.2,307.3,266.2,299.9,269.6,293.5z"/>
	<path class="st4" d="M269,294.6h-43c-8,0-14.5,4.2-14.5,9.3s6.5,9.3,14.5,9.3h43.3C266.4,307.3,266.3,300.5,269,294.6z"/>
	<g>
		<path class="st8" d="M257.9,299h-5.6c-1.2,0-2.2,0.4-2.2,0.9v0.1h7.8V299z"/>
		<path class="st10" d="M262.7,301.3c0-1.3-1.5-2.3-3.3-2.3h-7.2c1.4,0,2.5,0.8,2.5,1.7l0,24.3l4-3.1l4,3.1L262.7,301.3z"/>
	</g>
	<g>
		<path class="st5" d="M253.6,291.7h-50.5c-4.5,0-8.1-4.3-8.1-9.6l0,0c0-5.3,3.6-9.6,8.1-9.6h50.5l0,0c-3.9,5.3-4,13.2-0.4,18.7
			L253.6,291.7z"/>
		<path class="st3" d="M195,282.1L195,282.1c0-5.3,3.7-9.6,8.3-9.6h51.3c0.2,0,0.4-0.2,0.4-0.5l0,0c0-0.3-0.2-0.5-0.4-0.5h-81.3
			c-5.1,0-9.2,4.8-9.2,10.6l0,0c0,5.9,4.1,10.6,9.2,10.6h81.3c0.2,0,0.4-0.2,0.4-0.5l0,0c0-0.3-0.2-0.5-0.4-0.5h-51.3
			C198.7,291.7,195,287.4,195,282.1z"/>
		<g>
			<path class="st11" d="M244.8,277.2h-5.6c-1.2,0-2.2,0.4-2.2,0.9v0.1h7.8V277.2z"/>
			<path class="st1" d="M249.6,279.4c0-1.2-1.5-2.2-3.3-2.2h-7.2c1.4,0,2.5,0.8,2.5,1.7l0,23.8l4-3.1l4,3.1L249.6,279.4z"/>
		</g>
	</g>
	<g>
		<g>
			<path class="st11" d="M334.1,130.1l7.5-2l-5.1,67.4l-8.9,0.3l4.5-63.3C332.1,131.4,332.9,130.4,334.1,130.1z"/>
			<g>
				<path class="st4" d="M337.1,197.4c-0.2,0-0.3,0-0.5,0c-1.5-0.2-2.6-1.6-2.4-3.3l5-63.4c0.1-1.6,1.4-2.8,2.9-2.7s2.6,1.6,2.4,3.3
					l-5,63.4C339.4,196.2,338.4,197.3,337.1,197.4z"/>
				<path class="st4" d="M268.5,200.8c0,0,0,0.1,0,0.1l0,0c0.2,2.6,2.2,4.5,4.5,4.3l63-5.6c2.2-0.2,3.8-2.5,3.6-5c0-0.1,0-0.2,0-0.3
					L268.5,200.8z"/>
			</g>
		</g>
		<path class="st12" d="M312.4,268.9c-4.1,2.3-16.7-1.7-16.7-2.1c-0.2,3.4-14.1,37.2-14.1,37.2l0,10.4c0,0,28.7,1.4,28.3-1.2
			s-2-0.9-7.7-5.7c-0.5-0.4-8.5-2.3-6.4-7C300.2,290.8,309.5,274.9,312.4,268.9z"/>
		<path class="st1" d="M280.6,314.7l31.4,0c1.1-0.1,1.4-1,1-1.6c-0.8-1.2-6.8-3.9-10.9-5.7c-7,0.8-19.4-1.9-20.6-3.5
			C278.6,307.9,280,314.6,280.6,314.7z"/>
		<path class="st2" d="M273.7,244.7c-0.4-1.3,27.1-12.9,28.3-11.6c2.2,2.4-14.9,46.6-14.9,46.6l19.6,6c0,0,20.4-51.1,19.5-60.5
			c-0.9-9.3-11-20-33.1-13.2C271,218.8,273.7,244.7,273.7,244.7z"/>
		<path class="st12" d="M330.6,274.7c-4.6-0.8-10.7-1.1-15.5-1.2c0.6,4.3,3.3,26.3,2.8,27.6c-2,5.5-6.6,8-6.6,8s21.3,19.3,22.6,17
			c1.3-2.2-1-1.9-2.3-9.3c-0.1-0.6-3.2-10.9-3.4-16.4C327.9,290,330.4,280.5,330.6,274.7z"/>
		<path class="st3" d="M323.8,202.8c-3-1.6-10.7-1.6-19.2-1.1c-16.6,1.1-32.9,4.3-48.7,9.6l-10.5,3.5l0-10.8c0,0-33.5-5.6-34.7,2.7
			c-1.8,12.5,0.4,37.9,11.6,43.6c34.7,17.6,83.4-28.1,83.5-22.1c0.2,8,7,37.9,8.7,51c4.8,0.1,13.1,0.1,16.7-0.7
			C331.9,252.8,332.2,207.3,323.8,202.8z"/>
		<path class="st1" d="M310.7,309.6l24,19.2c0.9,0.6,1.7,0.1,1.8-0.6c0.1-1.4-2.8-7.3-4.8-11.3c-6-3.8-13.9-13.8-13.7-15.8
			C315.5,303.2,310.3,309.1,310.7,309.6z"/>
		<path class="st13" d="M256.5,98.3c-0.8-7.4-1.7-14.8-7.8-20.2c-4.9-4.4-11.2-5.1-17.4-2.8c-17.6,6.6-8.5,22.3-31,38
			c-7,4.9-14.7,8.2-19.9,14.8c-7.3,9.2-4.6,20.3,2.1,27.7c32,35.5,67.8-12.4,70.4-23.9C254.8,123.5,257,103.1,256.5,98.3z"/>
		<path class="st0" d="M250,139.7c-2.6-4.8-5.3-8.7-5.3-8.7c-2.7-4.8-9.7-7.3-9.7-7.3s-2.3,0-5,0.2c-0.2,0.4-0.3,0.8-0.5,0.9
			c-1,0.8-6.8-0.2-10.6,2.3c-12.6,10.8-9.1,63-8.1,79.4L249,207c0,0-4.8-35.5,3-44.6C257.3,156.1,253.8,146.9,250,139.7z"/>
		<path class="st12" d="M232.7,106.1c0,0-2.1,15-3.6,18.7c-1.5,3.7,8.1,11.5,16,13.8c7.9,2.4-2.4-8.1-2.1-12
			c0.3-3.9,1.8-22.4,1.8-22.4L232.7,106.1z"/>
		<path class="st10" d="M244.4,109.6c0.2-3.1,0.4-5.3,0.4-5.3l-12.1,1.8c0,0-0.3,1.8-0.6,4.3C237,113.3,241.4,112.4,244.4,109.6z"/>
		<path class="st12" d="M236.5,78.7c0,0-4.8,1.1-7.7,5.6c-3,4.5-5,17.8,4.7,23.9c9.7,6.2,17.3-2.6,17.4-11.1
			C251,88.6,249.2,77.2,236.5,78.7z"/>
		<path class="st12" d="M253.1,94.5c-0.8,2.1-2.5,3.3-3.7,2.9s-1.5-2.5-0.7-4.6s2.5-3.3,3.7-2.9C253.7,90.3,254,92.4,253.1,94.5z"/>
		<path class="st13" d="M237.9,78.4c0,0-6.1,13.7-11.4,14.9c-5.4,1.2-5.3,8.1-5.3,8.1s0.1-15.9,5.1-19.5
			C231.4,78.3,237.9,78.4,237.9,78.4z"/>
		<path class="st12" d="M228.6,96.2c0.7,2.2,0.1,4.4-1.4,4.9c-1.5,0.5-3.3-0.9-4-3.2c-0.7-2.2-0.1-4.4,1.4-4.9
			C226.1,92.5,227.9,93.9,228.6,96.2z"/>
		<path class="st12" d="M297.1,194.8c-2.3-0.8-5.7-0.9-5.7-1.2c0.2-1.2,10.4,2.7,9,0.9c-0.8-1-8.4-4.5-10.2-3.9
			c-1.8,0.6-13.5,3.9-13.5,3.9l-32.1-7.5c0,0-8.1-18.4-8.9-34.3c-6.7,0.9-11.3,2.6-17.1,5.8c2.8,15.1,9.6,39.7,17.2,44.3
			c3.2,1.9,41.1-2.3,41.1-2.3s8.4-0.6,9.7-1.1c1-0.4,3.7-1.9,5.2-2.3c3.3-0.9,9.2,1.4,9.2,0.8C300.9,197.2,299.4,195.6,297.1,194.8z
			"/>
		<path class="st6" d="M235.8,135.7c-0.3-4.9-2.2-9.6-7.3-11.1c-3.2-0.9-6.8,0-9.4,2.1c-3.1,2.5-3.9,6.5-3.9,10.3
			c0,8.6,0.6,17.5,2.2,26c5.8-3.2,12.6-5.2,19.3-6.1C236.7,156.8,236.3,142.1,235.8,135.7z"/>
	</g>
	<g>
		<path class="st4" d="M136.3,144.9l-49.8-9.3c-1-0.2-1.7-1.1-1.5-2.1l6.2-33.5c0.2-1,1.1-1.7,2.1-1.5l49.8,9.3
			c1,0.2,1.7,1.1,1.5,2.1l-6.2,33.5C138.3,144.4,137.3,145.1,136.3,144.9z"/>
		<path class="st4" d="M112.6,106.6l-15.2-2.8c-1-0.2-1.7-1.1-1.5-2.1l0.9-5.1c0.2-1,1.1-1.7,2.1-1.5l15.2,2.8
			c1,0.2,1.7,1.1,1.5,2.1l-0.9,5.1C114.6,106.1,113.6,106.8,112.6,106.6z"/>
		<path class="st5" d="M138.6,143.6c-0.3,0.9-1.2,1.5-2.1,1.3l-50.1-9.3c-0.9-0.2-1.6-1-1.5-2l2.6-30c0-0.5,0.3-1,0.7-1.3
			c0.4-0.3,0.9-0.4,1.5-0.3l55.7,10.4c0.5,0.1,1,0.4,1.2,0.8c0.3,0.4,0.3,1,0.2,1.5L138.6,143.6z"/>
	</g>
	<g>
		<polygon class="st0" points="367,33.9 358.5,36.2 356.6,25.9 359.4,25.4 360.7,32.7 366.2,31.1 		"/>
	</g>
	<g>
		<path class="st2" d="M95.3,175.8c2.1-0.2,5.4,0.8,6.9,1.8c0.2,0.2,1.9,0.9,3.7,3.8l-0.4,0.3c-1.9-1.9-3.1-2.4-4.6-2.8
			c-2.4-0.6-4.9-0.2-5.1,0L95.3,175.8z"/>
		<path class="st10" d="M105.7,181.5c0,0-13,2.2-11.8,12.3s14.9,18.1,27.2,11.8c16.5-8.5,10-30-1.8-31.6
			C107.6,172.3,105.7,181.5,105.7,181.5z"/>
		<path class="st7" d="M111.2,177c0,0,3.4-3.5,10.8-0.3c7.4,3.2,8,18,1.3,17.1C116.7,192.9,105.9,179.1,111.2,177z"/>
	</g>
	<g>
		<path class="st9" d="M200.7,42l-53.5,19.1c-1.7,0.6-3.6-0.3-4.2-2l-9.9-27.7c-0.6-1.7,0.3-3.6,2-4.2L188.6,8
			c1.7-0.6,3.6,0.3,4.2,2l9.9,27.7C203.3,39.5,202.4,41.4,200.7,42z"/>
		<path class="st14" d="M165.2,34.9c2,5.5-0.9,11.6-6.4,13.6c-5.5,2-11.6-0.9-13.6-6.4c-2-5.5,0.9-11.6,6.4-13.6
			C157.2,26.5,163.3,29.3,165.2,34.9z"/>
		<path class="st9" d="M156.8,33.4c0.6,1.6-0.3,3.4-1.9,4c-1.6,0.6-3.4-0.3-4-1.9c-0.6-1.6,0.3-3.4,1.9-4
			C154.4,30.9,156.2,31.8,156.8,33.4z"/>
		<path class="st9" d="M161.9,42.1l-9.4,3.4l-0.4-1.1c-0.7-1.9,0.3-4,2.2-4.7l2.4-0.9c1.9-0.7,4,0.3,4.7,2.2L161.9,42.1z"/>
		<g>
			<path class="st14" d="M166.6,29.1c-0.6,0-1.1-0.4-1.3-0.9c-0.3-0.7,0.1-1.5,0.8-1.7l23.4-8.3c0.1-0.1,0.3-0.1,0.5-0.1
				c0.6,0,1.1,0.4,1.3,0.9c0.3,0.7-0.1,1.5-0.8,1.7L167,29C166.9,29,166.7,29.1,166.6,29.1z"/>
		</g>
		<g>
			<path class="st14" d="M172.9,34.9c-0.6,0-1.1-0.4-1.3-0.9c-0.3-0.7,0.1-1.5,0.8-1.7l18.3-6.5c0.1-0.1,0.3-0.1,0.5-0.1
				c0.6,0,1.1,0.4,1.3,0.9c0.1,0.3,0.1,0.7-0.1,1s-0.4,0.6-0.8,0.7l-18.3,6.5C173.2,34.9,173,34.9,172.9,34.9z"/>
		</g>
	</g>
	<path class="st10" d="M283.9,250.8H154.6c-4,0-7.3,3.3-7.3,7.3v6.1c0,4,3.3,7.3,7.3,7.3h129.2l-0.1-0.1
		C278.3,265.7,278.3,256.6,283.9,250.8z"/>
	<path class="st5" d="M281.6,253.9h-69.1c-4,0-7.3,3.3-7.3,7.3l0,0c0,4,3.3,7.3,7.3,7.3h69.1C279,263.9,279,258.4,281.6,253.9z"/>
	<g>
		<g>
			<path class="st5" d="M389.6,251.4l-9.8-24.6c-0.5-1.2,0.1-2.6,1.3-3.1l35.2-14c1.2-0.5,2.6,0.1,3.1,1.3l9.8,24.6
				c0.5,1.2-0.1,2.6-1.3,3.1l-35.2,14C391.5,253.3,390.1,252.7,389.6,251.4z"/>
			<path class="st3" d="M422.9,237.2l-8.8-22.1c-0.1-0.4,0-0.8,0.4-0.9l0,0c0.4-0.1,0.8,0,0.9,0.4l8.8,22.1c0.1,0.4,0,0.8-0.4,0.9
				l0,0C423.4,237.8,423,237.6,422.9,237.2z"/>
			<path class="st3" d="M418.7,234.3l-7.2-18.1c-0.1-0.4,0-0.8,0.4-0.9l0,0c0.4-0.1,0.8,0,0.9,0.4l7.2,18.1c0.1,0.4,0,0.8-0.4,0.9
				l0,0C419.2,234.8,418.8,234.7,418.7,234.3z"/>
			<path class="st3" d="M417.6,239.3l-8.8-22.1c-0.1-0.4,0-0.8,0.4-0.9l0,0c0.4-0.1,0.8,0,0.9,0.4l8.8,22.1c0.1,0.4,0,0.8-0.4,0.9
				l0,0C418.2,239.8,417.8,239.7,417.6,239.3z"/>
			<path class="st3" d="M413,235.3l-6.8-17c-0.1-0.4,0-0.8,0.4-0.9l0,0c0.4-0.1,0.8,0,0.9,0.4l6.8,17c0.1,0.4,0,0.8-0.4,0.9l0,0
				C413.5,235.8,413.1,235.7,413,235.3z"/>
			<g>
				<path class="st2" d="M422.6,212.8l-0.2-0.4c-0.1-0.2-0.2-0.2-0.4-0.2l-3.3,1.3c-0.2,0.1-0.2,0.2-0.2,0.4l0.2,0.4
					c0.1,0.2,0.2,0.2,0.4,0.2l3.3-1.3C422.6,213.1,422.7,213,422.6,212.8z"/>
				<path class="st2" d="M423.4,214.7l-0.2-0.4c-0.1-0.2-0.2-0.2-0.4-0.2l-3.3,1.3c-0.2,0.1-0.2,0.2-0.2,0.4l0.2,0.4
					c0.1,0.2,0.2,0.2,0.4,0.2l3.3-1.3C423.4,215,423.4,214.9,423.4,214.7z"/>
				<path class="st2" d="M424.1,216.6l-0.2-0.4c-0.1-0.2-0.2-0.2-0.4-0.2l-3.3,1.3c-0.2,0.1-0.2,0.2-0.2,0.4l0.2,0.4
					c0.1,0.2,0.2,0.2,0.4,0.2l3.3-1.3C424.1,216.9,424.2,216.8,424.1,216.6z"/>
				<path class="st2" d="M424.9,218.5l-0.2-0.4c-0.1-0.2-0.2-0.2-0.4-0.2l-3.3,1.3c-0.2,0.1-0.2,0.2-0.2,0.4l0.2,0.4
					c0.1,0.2,0.2,0.2,0.4,0.2l3.3-1.3C424.9,218.8,425,218.7,424.9,218.5z"/>
				<path class="st2" d="M425.7,220.4l-0.2-0.4c-0.1-0.2-0.2-0.2-0.4-0.2l-3.3,1.3c-0.2,0.1-0.2,0.2-0.2,0.4l0.2,0.4
					c0.1,0.2,0.2,0.2,0.4,0.2l3.3-1.3C425.6,220.7,425.7,220.6,425.7,220.4z"/>
				<path class="st2" d="M426.4,222.3l-0.2-0.4c-0.1-0.2-0.2-0.2-0.4-0.2l-3.3,1.3c-0.2,0.1-0.2,0.2-0.2,0.4l0.2,0.4
					c0.1,0.2,0.2,0.2,0.4,0.2l3.3-1.3C426.4,222.6,426.5,222.5,426.4,222.3z"/>
				<path class="st2" d="M427.2,224.2l-0.2-0.4c-0.1-0.2-0.2-0.2-0.4-0.2l-3.3,1.3c-0.2,0.1-0.2,0.2-0.2,0.4l0.2,0.4
					c0.1,0.2,0.2,0.2,0.4,0.2l3.3-1.3C427.2,224.5,427.2,224.4,427.2,224.2z"/>
				<path class="st2" d="M427.9,226.1l-0.2-0.4c-0.1-0.2-0.2-0.2-0.4-0.2l-3.3,1.3c-0.2,0.1-0.2,0.2-0.2,0.4l0.2,0.4
					c0.1,0.2,0.2,0.2,0.4,0.2l3.3-1.3C427.9,226.4,428,226.3,427.9,226.1z"/>
				<path class="st2" d="M428.7,228l-0.2-0.4c-0.1-0.2-0.2-0.2-0.4-0.2l-3.3,1.3c-0.2,0.1-0.2,0.2-0.2,0.4l0.2,0.4
					c0.1,0.2,0.2,0.2,0.4,0.2l3.3-1.3C428.7,228.3,428.8,228.2,428.7,228z"/>
				<path class="st2" d="M429.4,229.9l-0.2-0.4c-0.1-0.2-0.2-0.2-0.4-0.2l-3.3,1.3c-0.2,0.1-0.2,0.2-0.2,0.4l0.2,0.4
					c0.1,0.2,0.2,0.2,0.4,0.2l3.3-1.3C429.4,230.3,429.5,230.1,429.4,229.9z"/>
				<path class="st2" d="M430.2,231.8l-0.2-0.4c-0.1-0.2-0.2-0.2-0.4-0.2l-3.3,1.3c-0.2,0.1-0.2,0.2-0.2,0.4l0.2,0.4
					c0.1,0.2,0.2,0.2,0.4,0.2l3.3-1.3C430.2,232.2,430.3,232,430.2,231.8z"/>
				<path class="st2" d="M431,233.7l-0.2-0.4c-0.1-0.2-0.2-0.2-0.4-0.2l-3.3,1.3c-0.2,0.1-0.2,0.2-0.2,0.4l0.2,0.4
					c0.1,0.2,0.2,0.2,0.4,0.2l3.3-1.3C431,234.1,431,233.9,431,233.7z"/>
			</g>
		</g>
		<g>
			<path class="st8" d="M440.2,231.8l-14,19.9c0,0-0.1,0.1-0.1,0.1l-1.4,4.4c-0.2,0.5,0.4,0.9,0.9,0.6l3.7-2.8c0,0,0.1-0.1,0.1-0.1
				l14-20c0.2-0.3,0.1-0.6-0.2-0.8l-2.4-1.5C440.7,231.4,440.4,231.5,440.2,231.8z"/>
			<path class="st4" d="M429.4,253.9L429.4,253.9l-3.6,2.8l-1-0.7l1.4-4.1C427.2,252.4,428.5,253,429.4,253.9z"/>
		</g>
	</g>
	<g>
		<path class="st3" d="M298.5,16.1c2,1.6,5.5,6.8,10,10.4c2.6,2.1,4.6,1.6,8,2c15.8,1.9,11.5,5.2,13.4,5.5
			c-0.5,1.2-5.5,11.7-6.4,13.8c-0.9,2-2.3,2.8-4.4,2.5c-3.3-0.5-6.6-0.8-9.8-1.5c-8.3-1.8-12.9-5.9-18.8-10.9c-1.6-1.3-2-3-1.1-4.9
			C293.1,24.3,298.1,16.9,298.5,16.1z"/>
		<path class="st9" d="M331.6,46.6c-0.1,3.4,0.2,4.1-1.3,3.6c-0.9-0.3-1.8-0.7-2.6-1.2c-0.6-0.3-0.6-0.7-0.1-1.2
			c0.7-0.7,1.4-1.4,2.1-2.1c-0.5-1.4,0.1-2.9,1.3-3.7c0.3-0.2,0.1,0.2,2.3-4.9c-7.3-0.9-12.4-1.5-21.3-2.6c-2.4-0.3-4.5-1.2-6.3-2.8
			c-6.4-5.3-12.7-10.6-19.1-16c-0.9-0.7-1-1.8-0.3-2.6c0.5-0.6,1.2-0.7,2-0.6c2,0.3,21.9,2.7,24,3c2.7,0.3,5,1.3,7,3
			c6.2,5.2,12.5,10.4,18.7,15.7c0.9,0.7,1.1,1.4,0.8,2.2c-0.3,0.9-1.1,1.3-2.1,1.1c-0.8-0.2-1.1,0.1-1.4,0.8c-1.2,3.3-2.1,4-1.8,5.2
			C333.7,44.6,332.6,46.2,331.6,46.6z"/>
	</g>
	<g>
		<path class="st3" d="M364.6,281l3.6,3.5c8.6,8.2,15.6,17.9,20.6,28.6l0.6,1.2c0,0,9.5,0.8,10.8-7.7l0,0
			c-8.3-9.4-15.2-19.5-20.9-30.6l-1.7-4L364.6,281z"/>
		<path class="st9" d="M377.7,271.8c0.5,0.7-2.1,3.3-5.7,5.8s-6.9,4-7.4,3.4s2.1-3.3,5.7-5.8C373.9,272.6,377.2,271.1,377.7,271.8z"
			/>
		<path class="st2" d="M377.7,271.8L377.7,271.8c0,0-7.2,6.1-10.2,6.7l0.9,1.3c1.1-0.6,2.3-1.4,3.6-2.2
			C375.6,275.1,378.1,272.5,377.7,271.8z"/>
		<g>
			<path class="st8" d="M387.4,289.6c0,1.1-0.4,5.6-8,7.5c0.5,0.7,1,1.4,1.5,2.1c4.8-1.4,7-3.9,7.9-5.8c0.2-0.3,0.3-0.7,0.5-1
				C388.6,291.5,388,290.5,387.4,289.6z"/>
			<polygon class="st8" points="380.1,295.8 368.9,295.4 371.6,297.6 370,300.5 380.5,297.8 			"/>
			<polygon class="st8" points="381.1,298.4 377.1,305.3 379.9,304.2 381,306.4 382.9,299.1 			"/>
			<path class="st10" d="M382.6,300.2c-2,0.1-3.7-1.4-3.8-3.4c-0.1-2,1.3-3.8,3.3-3.9c2-0.1,3.7,1.4,3.8,3.4
				C386,298.3,384.6,300.1,382.6,300.2z"/>
		</g>
	</g>
	<g>
		<path class="st15" d="M406.3,143.6l-23.5-21c-1.5-1.4-0.9-4.2,1.2-5.4l18.7-10.6c1.2-0.7,2.6-0.6,3.4,0.2l23.5,21
			c1.5,1.4,0.9,4.2-1.2,5.4l-18.7,10.6C408.5,144.5,407.1,144.4,406.3,143.6z"/>
		<g>
			<path class="st14" d="M405.2,127l-2-16.1c-0.1-0.6,0.4-1.3,1-1.5c0.6-0.2,1.2,0.1,1.3,0.8l1.8,14.8l17.8,4.3
				c0.6,0.1,0.8,0.8,0.6,1.4c-0.3,0.6-0.9,1-1.5,0.9L405.2,127z"/>
		</g>
	</g>
	<g>
		<path class="st11" d="M8.7,345c-1.3,0-2.3,1.2-2.3,2.6c0,1.5,1,2.6,2.5,0.9h462.5c0.6,0,1.1-0.8,1.1-1.7l0,0c0-1-0.5-1.8-1.1-1.8
			L8.7,345L8.7,345z"/>
	</g>
	<polygon class="st4" points="98.5,53.2 100.9,58 106.4,57.9 108.8,63.4 114.5,61.4 117.5,67.6 123,66.4 126.8,71.9 124.7,73.4 
		121.9,69.3 116,70.5 113.2,64.6 107.4,66.6 104.8,60.4 99.4,60.6 97.2,56.2 93.7,57 93.1,54.5 	"/>
	<polygon class="st0" points="392.2,176.1 397.2,178.1 401.2,174.3 406.6,177 409.7,171.7 415.9,174.5 419.4,169.9 425.8,171.6 
		425.2,174 420.4,172.8 416.8,177.6 410.7,174.9 407.6,180.3 401.6,177.4 397.7,181 393.1,179.2 391,182.1 389,180.6 	"/>
</g>
</svg>
